<svg width="38" height="38" viewBox="0 0 38 38" fill="none" xmlns="http://www.w3.org/2000/svg">
<circle cx="19" cy="19" r="19" fill="#639599"/>
<path d="M12.5088 20.7084H15.3489V32.4004C15.3489 32.6312 15.5359 32.8183 15.7668 32.8183H20.5822C20.813 32.8183 21.0001 32.6312 21.0001 32.4004V20.7634H24.265C24.4772 20.7634 24.6558 20.6041 24.6801 20.3933L25.176 16.0889C25.1896 15.9704 25.152 15.8518 25.0728 15.763C24.9935 15.6741 24.88 15.6232 24.7609 15.6232H21.0002V12.9249C21.0002 12.1116 21.4382 11.6991 22.302 11.6991C22.4252 11.6991 24.7609 11.6991 24.7609 11.6991C24.9917 11.6991 25.1788 11.512 25.1788 11.2812V7.33016C25.1788 7.09932 24.9917 6.91227 24.7609 6.91227H21.3722C21.3483 6.9111 21.2953 6.90918 21.217 6.90918C20.6291 6.90918 18.5853 7.0246 16.971 8.50978C15.1822 10.1556 15.4309 12.1262 15.4903 12.4678V15.6231H12.5088C12.278 15.6231 12.0909 15.8101 12.0909 16.041V20.2904C12.0909 20.5212 12.278 20.7084 12.5088 20.7084Z" fill="#1B4B66"/>
</svg>
