<svg width="38" height="38" viewBox="0 0 38 38" fill="none" xmlns="http://www.w3.org/2000/svg">
<circle cx="19" cy="19" r="19" fill="#639599"/>
<path fill-rule="evenodd" clip-rule="evenodd" d="M29.9923 11.6857C30.3755 12.0686 30.6516 12.5453 30.7931 13.0681C31.6081 16.347 31.4198 21.5257 30.809 24.9312C30.6674 25.454 30.3913 25.9306 30.0082 26.3136C29.625 26.6966 29.1481 26.9726 28.6251 27.114C26.7102 27.636 19.0034 27.636 19.0034 27.636C19.0034 27.636 11.2965 27.636 9.38164 27.114C8.85858 26.9726 8.38172 26.6966 7.99856 26.3136C7.6154 25.9306 7.3393 25.454 7.19776 24.9312C6.37802 21.6665 6.60273 16.4847 7.18194 13.0839C7.32347 12.5611 7.59957 12.0845 7.98273 11.7015C8.3659 11.3185 8.84275 11.0425 9.36581 10.9011C11.2807 10.3791 18.9875 10.3633 18.9875 10.3633C18.9875 10.3633 26.6944 10.3633 28.6093 10.8853C29.1323 11.0267 29.6092 11.3027 29.9923 11.6857ZM22.7013 18.9996L16.5325 22.7009V15.2983L22.7013 18.9996Z" fill="#1B4B66"/>
</svg>
