<svg width="24" height="24" viewBox="0 0 24 24" fill="none" xmlns="http://www.w3.org/2000/svg">
<path d="M5.26904 9.75L6.26904 9.75001L6.26904 9.74861L5.26904 9.75ZM12.0514 3.00019L12.0589 2.00022L12.0576 2.00021L12.0514 3.00019ZM20.0529 16.8711L19.1883 17.3735L19.1901 17.3765L20.0529 16.8711ZM19.4078 18V19L19.4103 19L19.4078 18ZM4.59222 18L4.58965 19H4.59222V18ZM3.94716 16.8709L4.80992 17.3765L4.81171 17.3735L3.94716 16.8709ZM5.26904 10.5L4.26904 10.5V10.5H5.26904ZM6.26904 9.74861C6.26798 8.99108 6.41687 8.24083 6.70712 7.54111L4.85974 6.77481C4.46837 7.71831 4.26762 8.72995 4.26904 9.7514L6.26904 9.74861ZM6.70712 7.54111C6.99736 6.84139 7.42323 6.20603 7.96018 5.67167L6.54937 4.25405C5.82536 4.97459 5.25112 5.8313 4.85974 6.77481L6.70712 7.54111ZM7.96018 5.67167C8.49712 5.1373 9.13452 4.7145 9.83563 4.42762L9.07823 2.57658C8.13285 2.96341 7.27338 3.53352 6.54937 4.25405L7.96018 5.67167ZM9.83563 4.42762C10.5367 4.14074 11.2877 3.99547 12.0452 4.00017L12.0576 2.00021C11.0362 1.99387 10.0236 2.18976 9.07823 2.57658L9.83563 4.42762ZM12.044 4.00016C15.1873 4.02353 17.7317 6.64312 17.7317 9.83474H19.7317C19.7317 5.58251 16.3386 2.03204 12.0589 2.00022L12.044 4.00016ZM17.7317 9.83474V10.5H19.7317V9.83474H17.7317ZM17.7317 10.5C17.7317 13.9987 18.4646 16.128 19.1883 17.3734L20.9176 16.3687C20.4038 15.4843 19.7317 13.7167 19.7317 10.5H17.7317ZM19.1901 17.3765C19.1678 17.3386 19.156 17.2954 19.1558 17.2514L21.1557 17.2407C21.1541 16.933 21.0713 16.6312 20.9158 16.3657L19.1901 17.3765ZM19.1558 17.2514C19.1555 17.2075 19.1669 17.1642 19.1887 17.126L20.9252 18.1184C21.0779 17.8512 21.1574 17.5485 21.1557 17.2407L19.1558 17.2514ZM19.1887 17.126C19.2105 17.0878 19.2421 17.0561 19.2801 17.0339L20.2861 18.7625C20.5521 18.6077 20.7725 18.3855 20.9252 18.1184L19.1887 17.126ZM19.2801 17.0339C19.3181 17.0118 19.3612 17.0001 19.4052 17L19.4103 19C19.7181 18.9992 20.0201 18.9173 20.2861 18.7625L19.2801 17.0339ZM19.4078 17H4.59222V19H19.4078V17ZM4.5948 17C4.63878 17.0001 4.68196 17.0118 4.71996 17.034L3.71381 18.7624C3.97978 18.9173 4.28189 18.9992 4.58965 19L4.5948 17ZM4.71996 17.034C4.75797 17.0561 4.78948 17.0878 4.8113 17.126L3.07473 18.1182C3.22739 18.3854 3.44784 18.6076 3.71381 18.7624L4.71996 17.034ZM4.8113 17.126C4.83312 17.1642 4.84448 17.2075 4.84423 17.2515L2.84426 17.2404C2.84256 17.5482 2.92206 17.8509 3.07473 18.1182L4.8113 17.126ZM4.84423 17.2515C4.84399 17.2955 4.83215 17.3386 4.80991 17.3765L3.08441 16.3653C2.9288 16.6308 2.84597 16.9327 2.84426 17.2404L4.84423 17.2515ZM4.81171 17.3735C5.53574 16.1279 6.26904 13.9987 6.26904 10.5H4.26904C4.26904 13.7164 3.5967 15.484 3.08262 16.3684L4.81171 17.3735ZM6.26904 10.5L6.26904 9.75001L4.26904 9.75L4.26904 10.5L6.26904 10.5Z" fill="#1B4B66"/>
<path d="M9 18V18.75C9 19.5456 9.31607 20.3087 9.87868 20.8713C10.4413 21.4339 11.2044 21.75 12 21.75C12.7956 21.75 13.5587 21.4339 14.1213 20.8713C14.6839 20.3087 15 19.5456 15 18.75V18" stroke="#1B4B66" stroke-width="2" stroke-linecap="round" stroke-linejoin="round"/>
</svg>
