<svg width="38" height="38" viewBox="0 0 38 38" fill="none" xmlns="http://www.w3.org/2000/svg">
<circle cx="19" cy="19" r="19" fill="#639599"/>
<path fill-rule="evenodd" clip-rule="evenodd" d="M14.371 8.70428C15.5685 8.64964 15.9508 8.63672 19 8.63672C22.0491 8.63672 22.4315 8.64964 23.6289 8.70428C24.824 8.75883 25.6401 8.9486 26.3543 9.22616C27.0926 9.51308 27.7187 9.89698 28.3428 10.5211C28.967 11.1453 29.3509 11.7714 29.6378 12.5097C29.9154 13.2239 30.1051 14.04 30.1597 15.235C30.2143 16.4325 30.2272 16.8148 30.2272 19.864C30.2272 22.9132 30.2143 23.2955 30.1597 24.493C30.1051 25.688 29.9154 26.5041 29.6378 27.2183C29.3509 27.9566 28.967 28.5827 28.3428 29.2069C27.7187 29.831 27.0926 30.2149 26.3543 30.5019C25.6401 30.7794 24.824 30.9692 23.6289 31.0237C22.4315 31.0784 22.0491 31.0913 19 31.0913C15.9508 31.0913 15.5685 31.0784 14.371 31.0237C13.1759 30.9692 12.3598 30.7794 11.6456 30.5019C10.9074 30.2149 10.2812 29.831 9.65708 29.2069C9.03292 28.5827 8.64902 27.9566 8.3621 27.2183C8.08454 26.5041 7.89477 25.688 7.84022 24.493C7.78558 23.2955 7.77271 22.9132 7.77271 19.864C7.77271 16.8148 7.78558 16.4325 7.84022 15.235C7.89477 14.04 8.08454 13.2239 8.3621 12.5097C8.64902 11.7714 9.03292 11.1453 9.65708 10.5211C10.2812 9.89698 10.9074 9.51308 11.6456 9.22616C12.3598 8.9486 13.1759 8.75883 14.371 8.70428ZM24.9931 15.2182C25.7372 15.2182 26.3404 14.6149 26.3404 13.8709C26.3404 13.1268 25.7372 12.5236 24.9931 12.5236C24.249 12.5236 23.6458 13.1268 23.6458 13.8709C23.6458 14.6149 24.249 15.2182 24.9931 15.2182ZM24.2394 19.8637C24.2394 22.7573 21.8937 25.1031 19 25.1031C16.1064 25.1031 13.7606 22.7573 13.7606 19.8637C13.7606 16.97 16.1064 14.6243 19 14.6243C21.8937 14.6243 24.2394 16.97 24.2394 19.8637ZM22.4545 19.864C22.4545 21.7719 20.9078 23.3185 19 23.3185C17.0921 23.3185 15.5454 21.7719 15.5454 19.864C15.5454 17.9561 17.0921 16.4094 19 16.4094C20.9078 16.4094 22.4545 17.9561 22.4545 19.864Z" fill="#1B4B66"/>
</svg>
