<svg width="38" height="38" viewBox="0 0 38 38" fill="none" xmlns="http://www.w3.org/2000/svg">
<circle cx="19" cy="19" r="19" fill="#639599"/>
<path d="M31.0909 12.6896C30.2011 13.0842 29.245 13.3509 28.2414 13.4709C29.2658 12.8568 30.0524 11.8846 30.4228 10.7261C29.4642 11.2946 28.4025 11.7075 27.2724 11.93C26.3674 10.9658 25.078 10.3633 23.6511 10.3633C20.9111 10.3633 18.6898 12.5846 18.6898 15.3244C18.6898 15.7132 18.7337 16.0919 18.8183 16.455C14.695 16.2481 11.0394 14.2729 8.59247 11.2714C8.16543 12.0041 7.92077 12.8564 7.92077 13.7656C7.92077 15.4868 8.79671 17.0053 10.1279 17.8949C9.31459 17.8692 8.54966 17.646 7.8807 17.2745C7.88035 17.2952 7.88035 17.3159 7.88035 17.3368C7.88035 19.7406 9.59047 21.7458 11.8601 22.2015C11.4437 22.3149 11.0054 22.3755 10.5529 22.3755C10.2333 22.3755 9.92243 22.3444 9.61957 22.2865C10.2509 24.2575 12.083 25.6919 14.254 25.7319C12.5561 27.0625 10.4169 27.8557 8.09254 27.8557C7.69212 27.8557 7.29718 27.8322 6.90906 27.7864C9.10461 29.194 11.7124 30.0153 14.5141 30.0153C23.6395 30.0153 28.6296 22.4556 28.6296 15.8997C28.6296 15.6845 28.6248 15.4706 28.6153 15.2578C29.5845 14.5584 30.4257 13.6846 31.0909 12.6896Z" fill="#1B4B66"/>
</svg>
