<svg width="74" height="38" viewBox="0 0 74 38" fill="none" xmlns="http://www.w3.org/2000/svg">
<rect width="74" height="38" rx="4" fill="#F4F4F4"/>
<path d="M13.8239 22.8409H19.375V25H21.3864V22.8409H22.875V21.108H21.3864V13.3636H18.7614L13.8239 21.1648V22.8409ZM19.3977 21.108H15.983V21.017L19.3068 15.75H19.3977V21.108ZM25.652 25.125C26.3224 25.125 26.8963 24.5682 26.902 23.875C26.8963 23.1932 26.3224 22.6364 25.652 22.6364C24.9588 22.6364 24.3963 23.1932 24.402 23.875C24.3963 24.5682 24.9588 25.125 25.652 25.125ZM32.9077 25.1591C35.3679 25.1591 37.0838 23.4886 37.0838 21.1761C37.0838 18.9375 35.527 17.3239 33.4134 17.3239C32.4702 17.3239 31.6349 17.6989 31.2031 18.2102H31.1349L31.4702 15.125H36.4759V13.3636H29.7259L29.1179 19.3636L31.0213 19.6761C31.4134 19.2443 32.152 18.9545 32.8509 18.9602C34.1293 18.9659 35.0497 19.9091 35.044 21.2273C35.0497 22.5284 34.152 23.4545 32.9077 23.4545C31.8565 23.4545 31.0099 22.7898 30.9361 21.8352H28.8906C28.9474 23.767 30.6349 25.1591 32.9077 25.1591Z" fill="#171520"/>
<path d="M52.3446 23.901L56.2849 26.3974C56.7886 26.7165 57.4139 26.2419 57.2644 25.654L56.126 21.1756C56.0939 21.0509 56.0977 20.9197 56.137 20.797C56.1762 20.6743 56.2492 20.5652 56.3477 20.4822L59.8811 17.5413C60.3453 17.1549 60.1057 16.3844 59.5092 16.3457L54.8949 16.0462C54.7706 16.0373 54.6514 15.9933 54.5511 15.9193C54.4509 15.8453 54.3737 15.7443 54.3286 15.6282L52.6076 11.2944C52.5609 11.1711 52.4777 11.0649 52.3692 10.99C52.2606 10.9151 52.1319 10.875 52 10.875C51.8681 10.875 51.7394 10.9151 51.6309 10.99C51.5223 11.0649 51.4391 11.1711 51.3924 11.2944L49.6714 15.6282C49.6263 15.7443 49.5491 15.8453 49.4489 15.9193C49.3486 15.9933 49.2294 16.0373 49.1052 16.0462L44.4908 16.3457C43.8943 16.3844 43.6547 17.1549 44.1189 17.5413L47.6523 20.4822C47.7508 20.5652 47.8238 20.6743 47.863 20.797C47.9023 20.9197 47.9061 21.0509 47.874 21.1756L46.8182 25.3288C46.6389 26.0343 47.3893 26.6038 47.9937 26.2209L51.6554 23.901C51.7584 23.8354 51.8779 23.8006 52 23.8006C52.1221 23.8006 52.2416 23.8354 52.3446 23.901Z" fill="#FF8C4B" stroke="#FF8C4B" stroke-width="2" stroke-linecap="round" stroke-linejoin="round"/>
</svg>
