<svg width="72" height="36" viewBox="0 0 72 36" fill="none" xmlns="http://www.w3.org/2000/svg">
<g clip-path="url(#clip0_2470_7752)">
<path d="M38.2495 19.4993V14.9992C38.2495 14.8003 38.1704 14.6095 38.0298 14.4689C37.8891 14.3282 37.6984 14.2492 37.4995 14.2492H34.4995C34.3005 14.2492 34.1098 14.3282 33.9691 14.4689C33.8285 14.6095 33.7495 14.8003 33.7495 14.9992V19.4993C33.7495 19.6982 33.6704 19.889 33.5298 20.0296C33.3892 20.1703 33.1984 20.2493 32.9995 20.2493L28.5001 20.2499C28.4016 20.2499 28.3041 20.2305 28.2131 20.1928C28.122 20.1551 28.0394 20.0999 27.9697 20.0303C27.9 19.9606 27.8448 19.8779 27.8071 19.7869C27.7694 19.6959 27.75 19.5984 27.75 19.4999V10.8317C27.75 10.7272 27.7718 10.6239 27.8141 10.5283C27.8564 10.4328 27.9181 10.3471 27.9954 10.2768L35.4949 3.45794C35.633 3.33241 35.8129 3.26285 35.9995 3.26285C36.186 3.26284 36.3659 3.33239 36.504 3.4579L44.0045 10.2768C44.0818 10.3471 44.1436 10.4328 44.1859 10.5284C44.2282 10.6239 44.25 10.7273 44.25 10.8318V19.4999C44.25 19.5984 44.2306 19.6959 44.1929 19.7869C44.1552 19.8779 44.1 19.9606 44.0303 20.0303C43.9606 20.0999 43.878 20.1552 43.7869 20.1928C43.6959 20.2305 43.5984 20.2499 43.4999 20.2499L38.9994 20.2493C38.8005 20.2493 38.6097 20.1703 38.4691 20.0296C38.3285 19.889 38.2494 19.6982 38.2495 19.4993V19.4993Z" stroke="#1B4B66" stroke-width="2" stroke-linecap="round" stroke-linejoin="round"/>
</g>
<path d="M20.0662 34V25.2727H21.383V29.0653H25.7338V25.2727H27.0549V34H25.7338V30.1946H21.383V34H20.0662ZM31.6273 34.1321C31.0137 34.1321 30.4782 33.9915 30.0208 33.7102C29.5634 33.429 29.2083 33.0355 28.9554 32.5298C28.7026 32.0241 28.5762 31.4332 28.5762 30.7571C28.5762 30.0781 28.7026 29.4844 28.9554 28.9759C29.2083 28.4673 29.5634 28.0724 30.0208 27.7912C30.4782 27.5099 31.0137 27.3693 31.6273 27.3693C32.2409 27.3693 32.7765 27.5099 33.2338 27.7912C33.6912 28.0724 34.0463 28.4673 34.2992 28.9759C34.552 29.4844 34.6784 30.0781 34.6784 30.7571C34.6784 31.4332 34.552 32.0241 34.2992 32.5298C34.0463 33.0355 33.6912 33.429 33.2338 33.7102C32.7765 33.9915 32.2409 34.1321 31.6273 34.1321ZM31.6316 33.0625C32.0293 33.0625 32.3588 32.9574 32.6202 32.7472C32.8816 32.5369 33.0748 32.2571 33.1998 31.9077C33.3276 31.5582 33.3915 31.1733 33.3915 30.7528C33.3915 30.3352 33.3276 29.9517 33.1998 29.6023C33.0748 29.25 32.8816 28.9673 32.6202 28.7543C32.3588 28.5412 32.0293 28.4347 31.6316 28.4347C31.231 28.4347 30.8986 28.5412 30.6344 28.7543C30.373 28.9673 30.1784 29.25 30.0506 29.6023C29.9256 29.9517 29.8631 30.3352 29.8631 30.7528C29.8631 31.1733 29.9256 31.5582 30.0506 31.9077C30.1784 32.2571 30.373 32.5369 30.6344 32.7472C30.8986 32.9574 31.231 33.0625 31.6316 33.0625ZM36.1007 34V27.4545H37.3237V28.5199H37.4047C37.541 28.1591 37.764 27.8778 38.0737 27.6761C38.3833 27.4716 38.7541 27.3693 39.1859 27.3693C39.6234 27.3693 39.9899 27.4716 40.2853 27.6761C40.5836 27.8807 40.8038 28.1619 40.9458 28.5199H41.014C41.1703 28.1705 41.4189 27.892 41.7598 27.6847C42.1007 27.4744 42.5069 27.3693 42.9785 27.3693C43.5723 27.3693 44.0566 27.5554 44.4316 27.9276C44.8095 28.2997 44.9984 28.8608 44.9984 29.6108V34H43.7243V29.7301C43.7243 29.2869 43.6035 28.9659 43.362 28.767C43.1206 28.5682 42.8322 28.4688 42.497 28.4688C42.0822 28.4688 41.7598 28.5966 41.5297 28.8523C41.2995 29.1051 41.1845 29.4304 41.1845 29.8281V34H39.9146V29.6491C39.9146 29.294 39.8038 29.0085 39.5822 28.7926C39.3606 28.5767 39.0723 28.4688 38.7172 28.4688C38.4757 28.4688 38.2527 28.5327 38.0481 28.6605C37.8464 28.7855 37.6831 28.9602 37.5581 29.1847C37.4359 29.4091 37.3748 29.669 37.3748 29.9645V34H36.1007ZM49.5272 34.1321C48.8823 34.1321 48.3269 33.9943 47.861 33.7188C47.3979 33.4403 47.04 33.0497 46.7871 32.5469C46.5371 32.0412 46.4121 31.4489 46.4121 30.7699C46.4121 30.0994 46.5371 29.5085 46.7871 28.9972C47.04 28.4858 47.3922 28.0866 47.8439 27.7997C48.2985 27.5128 48.8297 27.3693 49.4377 27.3693C49.807 27.3693 50.165 27.4304 50.5115 27.5526C50.8581 27.6747 51.1692 27.8665 51.4448 28.1278C51.7203 28.3892 51.9377 28.7287 52.0968 29.1463C52.2559 29.5611 52.3354 30.0653 52.3354 30.6591V31.1108H47.1323V30.1562H51.0868C51.0868 29.821 51.0186 29.5241 50.8823 29.2656C50.7459 29.0043 50.5542 28.7983 50.307 28.6477C50.0627 28.4972 49.7757 28.4219 49.4462 28.4219C49.0882 28.4219 48.7757 28.5099 48.5087 28.6861C48.2445 28.8594 48.04 29.0866 47.8951 29.3679C47.753 29.6463 47.682 29.9489 47.682 30.2756V31.0213C47.682 31.4588 47.7587 31.831 47.9121 32.1378C48.0684 32.4446 48.2857 32.679 48.5641 32.8409C48.8425 33 49.1678 33.0795 49.54 33.0795C49.7814 33.0795 50.0016 33.0455 50.2005 32.9773C50.3993 32.9062 50.5712 32.8011 50.7161 32.6619C50.861 32.5227 50.9718 32.3509 51.0485 32.1463L52.2544 32.3636C52.1578 32.7187 51.9846 33.0298 51.7346 33.2969C51.4874 33.5611 51.1763 33.767 50.8013 33.9148C50.4292 34.0597 50.0044 34.1321 49.5272 34.1321Z" fill="#1B4B66"/>
<defs>
<clipPath id="clip0_2470_7752">
<rect width="24" height="24" fill="white" transform="translate(24)"/>
</clipPath>
</defs>
</svg>
