<svg width="44" height="44" viewBox="0 0 44 44" fill="none" xmlns="http://www.w3.org/2000/svg">
<circle cx="22" cy="22" r="21" fill="white" stroke="#B6B6B6" stroke-width="2"/>
<path d="M19.0057 16.3636H16.6932L13.8125 18.1875V20.3693L16.4773 18.6989H16.5455V28H19.0057V16.3636ZM26.3338 28.2557C29.2599 28.2557 31.027 26.0284 31.0327 22.1932C31.0384 18.3864 29.2486 16.2045 26.3338 16.2045C23.4134 16.2045 21.6406 18.3807 21.6349 22.1932C21.6236 26.017 23.402 28.25 26.3338 28.2557ZM26.3338 26.2159C24.9986 26.2159 24.1349 24.875 24.1406 22.1932C24.1463 19.5511 25.0043 18.2216 26.3338 18.2216C27.6577 18.2216 28.5213 19.5511 28.5213 22.1932C28.527 24.875 27.6634 26.2159 26.3338 26.2159Z" fill="#171520"/>
</svg>
