<svg width="44" height="44" viewBox="0 0 44 44" fill="none" xmlns="http://www.w3.org/2000/svg">
<circle cx="22" cy="22" r="21" fill="white" stroke="#B6B6B6" stroke-width="2"/>
<path d="M21.2841 28.1591C23.9091 28.1591 25.7955 26.7557 25.8011 24.8693C25.7955 23.4148 24.6761 22.2273 23.2784 21.9943V21.9148C24.4943 21.6648 25.3636 20.6136 25.3693 19.3352C25.3636 17.5341 23.6364 16.2045 21.2841 16.2045C18.9261 16.2045 17.1989 17.5341 17.2045 19.3352C17.1989 20.608 18.0568 21.6648 19.2955 21.9148V21.9943C17.875 22.2273 16.767 23.4148 16.7727 24.8693C16.767 26.7557 18.6591 28.1591 21.2841 28.1591ZM21.2841 26.3523C20.1136 26.3523 19.3295 25.6591 19.3295 24.6761C19.3295 23.6705 20.1534 22.9432 21.2841 22.9432C22.4091 22.9432 23.2386 23.6705 23.2386 24.6761C23.2386 25.6648 22.4489 26.3523 21.2841 26.3523ZM21.2841 21.1534C20.3011 21.1534 19.6023 20.5114 19.6023 19.5909C19.6023 18.6818 20.2898 18.0568 21.2841 18.0568C22.2727 18.0568 22.9659 18.6875 22.9659 19.5909C22.9659 20.5114 22.2614 21.1534 21.2841 21.1534Z" fill="#171520"/>
</svg>
