<svg width="44" height="44" viewBox="0 0 44 44" fill="none" xmlns="http://www.w3.org/2000/svg">
<circle cx="22" cy="22" r="21" fill="#D9EFF1" stroke="#1B4B66" stroke-width="2"/>
<path d="M21.1534 16.2045C18.5511 16.1932 16.7955 17.8977 16.8068 20.2386C16.8125 22.4091 18.3182 23.983 20.3807 23.983C21.6591 23.983 22.7955 23.3636 23.3125 22.3409H23.392C23.3864 24.6477 22.5852 26.0511 21.0682 26.0511C20.1761 26.0511 19.5341 25.5625 19.3466 24.7159H16.9205C17.1477 26.6761 18.7386 28.1591 21.0682 28.1591C23.9489 28.1591 25.8068 25.8295 25.8011 21.8807C25.7955 17.6648 23.5455 16.2159 21.1534 16.2045ZM21.1705 18.1364C22.3011 18.1364 23.1364 19.0568 23.1477 20.1648C23.1534 21.2784 22.2727 22.1989 21.1477 22.1989C20.0114 22.1989 19.1989 21.3125 19.1932 20.1705C19.1818 19.0341 20.0284 18.1364 21.1705 18.1364Z" fill="#171520"/>
</svg>
