<svg width="46" height="35" viewBox="0 0 46 35" fill="none" xmlns="http://www.w3.org/2000/svg">
<path d="M1.5 29.2857C1.5 31.8893 3.63908 34 6.27778 34H39.7222C42.3609 34 44.5 31.8893 44.5 29.2857V5.71429C44.5 3.11066 42.3609 1 39.7222 1H6.27778C3.63908 1 1.5 3.11066 1.5 5.71429V29.2857Z" fill="#1B4B66"/>
<path d="M8.66667 13.1224C8.66667 14.2383 9.58342 15.1429 10.7143 15.1429H13.7857C14.9166 15.1429 15.8333 14.2383 15.8333 13.1224V10.0918C15.8333 8.976 14.9166 8.07143 13.7857 8.07143H10.7143C9.58342 8.07143 8.66667 8.976 8.66667 10.0918V13.1224Z" fill="#1B4B66"/>
<path d="M3.88889 23.8214C3.47468 23.8214 3.13889 24.1572 3.13889 24.5714C3.13889 24.9856 3.47468 25.3214 3.88889 25.3214V23.8214ZM42.1111 25.3214C42.5253 25.3214 42.8611 24.9856 42.8611 24.5714C42.8611 24.1572 42.5253 23.8214 42.1111 23.8214V25.3214ZM6.27778 33.25C4.04381 33.25 2.25 31.4657 2.25 29.2857H0.75C0.75 32.313 3.23436 34.75 6.27778 34.75V33.25ZM6.27778 0.25C3.23436 0.25 0.75 2.68702 0.75 5.71429H2.25C2.25 3.5343 4.04381 1.75 6.27778 1.75V0.25ZM39.7222 34.75C42.7656 34.75 45.25 32.313 45.25 29.2857H43.75C43.75 31.4657 41.9562 33.25 39.7222 33.25V34.75ZM39.7222 1.75C41.9562 1.75 43.75 3.5343 43.75 5.71429H45.25C45.25 2.68702 42.7656 0.25 39.7222 0.25V1.75ZM39.7222 33.25H6.27778V34.75H39.7222V33.25ZM10.7143 14.3929C9.98814 14.3929 9.41667 13.8146 9.41667 13.1224H7.91667C7.91667 14.6619 9.17869 15.8929 10.7143 15.8929V14.3929ZM10.7143 7.32143C9.17869 7.32143 7.91667 8.55235 7.91667 10.0918H9.41667C9.41667 9.39964 9.98814 8.82143 10.7143 8.82143V7.32143ZM9.41667 13.1224V10.0918H7.91667V13.1224H9.41667ZM13.7857 15.8929C15.3213 15.8929 16.5833 14.6619 16.5833 13.1224H15.0833C15.0833 13.8146 14.5119 14.3929 13.7857 14.3929V15.8929ZM13.7857 8.82143C14.5119 8.82143 15.0833 9.39964 15.0833 10.0918H16.5833C16.5833 8.55235 15.3213 7.32143 13.7857 7.32143V8.82143ZM16.5833 13.1224V10.0918H15.0833V13.1224H16.5833ZM13.7857 14.3929H10.7143V15.8929H13.7857V14.3929ZM3.88889 25.3214H42.1111V23.8214H3.88889V25.3214ZM2.25 29.2857V5.71429H0.75V29.2857H2.25ZM6.27778 1.75H39.7222V0.25H6.27778V1.75ZM45.25 29.2857V5.71429H43.75V29.2857H45.25ZM10.7143 8.82143H13.7857V7.32143H10.7143V8.82143Z" fill="#1B4B66"/>
</svg>
