<svg width="69" height="69" viewBox="0 0 69 69" fill="none" xmlns="http://www.w3.org/2000/svg">
<rect x="0.75" y="0.5" width="67" height="68" rx="3.5" stroke="#DCDCDC"/>
<path d="M59.2206 31.6351C58.7655 30.3338 57.5252 29.3994 56.0684 29.3994H56.0379C55.0908 29.3994 54.2373 29.7936 53.6298 30.4263C53.0212 29.7936 52.1677 29.3994 51.2217 29.3994H51.1913C50.3588 29.3994 49.5978 29.7042 49.0134 30.2088V29.9523C48.9934 29.6969 48.7832 29.4961 48.5236 29.4961H46.2889C46.0157 29.4961 45.7949 29.7169 45.7949 29.9912V42.1261C45.7949 42.4005 46.0157 42.6212 46.2889 42.6212H48.5236C48.7727 42.6212 48.9776 42.4351 49.0102 42.1944L49.0092 33.4829C49.0092 33.4525 49.0102 33.4241 49.0134 33.3957C49.0491 33.0068 49.334 32.6873 49.7838 32.6473H49.8669H50.1013H50.1959C50.384 32.6641 50.5427 32.7304 50.6678 32.8302C50.8623 32.9847 50.9705 33.2223 50.9705 33.4829L50.9789 42.1513C50.9789 42.4257 51.2007 42.6475 51.473 42.6475H53.7076C53.9714 42.6475 54.1858 42.4372 54.1985 42.1755L54.1974 33.4714C54.1963 33.1855 54.3288 32.9269 54.5611 32.7734C54.6756 32.6999 54.8133 32.6505 54.9721 32.6358H55.0551H55.2895H55.3841C55.8676 32.6778 56.1598 33.0446 56.1587 33.4714L56.1672 42.1282C56.1672 42.4026 56.3889 42.6233 56.6612 42.6233H58.8958C59.168 42.6233 59.3898 42.4026 59.3898 42.1282V32.8176C59.3898 32.1827 59.3183 31.9126 59.2206 31.6351Z" fill="#54C1F0"/>
<path d="M44.0889 29.5278H42.8108V27.4571C42.8108 27.455 42.8108 27.4529 42.8108 27.4508C42.8108 27.2017 42.609 26.9999 42.3598 26.9999C42.3304 26.9999 42.302 27.0041 42.2747 27.0093C40.8578 27.3982 41.1416 29.3606 38.5549 29.5278H38.4971H38.3037C38.2658 29.5278 38.2301 29.533 38.1954 29.5404H38.1933L38.1954 29.5414C37.9747 29.5908 37.8086 29.7863 37.8086 30.0218V32.2564C37.8086 32.5287 38.0304 32.7504 38.3037 32.7504H39.6522L39.6501 42.2261C39.6501 42.4962 39.8687 42.7148 40.1389 42.7148H42.3483C42.6174 42.7148 42.836 42.4962 42.836 42.2261L42.837 32.7504H44.0889C44.3611 32.7504 44.5829 32.5287 44.5829 32.2564V30.0218C44.5829 29.7496 44.3611 29.5278 44.0889 29.5278Z" fill="#54C1F0"/>
<path d="M36.0534 29.528H33.8188C33.5466 29.528 33.3258 29.7498 33.3258 30.022V34.6426C33.3206 34.9285 33.0893 35.1577 32.8024 35.1577H31.8669C31.5768 35.1577 31.3424 34.9243 31.3424 34.6342L31.334 30.022C31.334 29.7498 31.1122 29.528 30.84 29.528H28.6053C28.3321 29.528 28.1113 29.7498 28.1113 30.022V35.0862C28.1113 37.0097 29.483 38.3814 31.4076 38.3814C31.4076 38.3814 32.8518 38.3814 32.8959 38.3898C33.1566 38.4192 33.3595 38.6379 33.3595 38.907C33.3595 39.1729 33.1608 39.3905 32.9033 39.423C32.8907 39.4251 32.8791 39.4283 32.8654 39.4304L29.5976 39.442C29.3243 39.442 29.1036 39.6637 29.1036 39.936V42.1696C29.1036 42.4428 29.3243 42.6636 29.5976 42.6636H33.2512C35.1768 42.6636 36.5474 41.2929 36.5474 39.3684V30.022C36.5474 29.7498 36.3267 29.528 36.0534 29.528Z" fill="#233266"/>
<path d="M14.4225 33.6226V34.6653V35.0016C14.4225 35.2907 14.1881 35.5261 13.899 35.5261L12.4811 35.5272V32.7638H13.899C14.1881 32.7638 14.4225 32.9972 14.4225 33.2873V33.6226ZM14.619 29.5275H9.73456C9.46653 29.5275 9.25 29.7451 9.25 30.0121V32.2015C9.25 32.2057 9.25105 32.2099 9.25105 32.2141C9.25105 32.2246 9.25 32.2351 9.25 32.2446V39.267V42.1543C9.25 42.4234 9.45181 42.6431 9.70197 42.6494H9.74402H11.9787C12.2509 42.6494 12.4727 42.4287 12.4727 42.1554L12.4811 38.7593H14.619C16.408 38.7593 17.6546 37.518 17.6546 35.7216V32.5694C17.6546 30.7731 16.408 29.5275 14.619 29.5275Z" fill="#233266"/>
<path d="M23.6948 38.8686V39.2175C23.6948 39.2459 23.6906 39.2732 23.6864 39.2995C23.6811 39.3247 23.6738 39.3489 23.6654 39.372C23.596 39.5675 23.4005 39.7094 23.1682 39.7094H22.238C21.9479 39.7094 21.7114 39.4887 21.7114 39.2175V38.796C21.7114 38.7908 21.7103 38.7855 21.7103 38.7803L21.7114 37.6587V37.6566V37.5326V37.3077L21.7124 37.3045C21.7135 37.0344 21.9479 36.8158 22.238 36.8158H23.1682C23.4593 36.8158 23.6948 37.0354 23.6948 37.3077V38.8686ZM23.3395 29.5401H20.2388C19.9644 29.5401 19.7427 29.7482 19.7427 30.0036V30.8728C19.7427 30.8781 19.7437 30.8844 19.7437 30.8897C19.7437 30.896 19.7427 30.9023 19.7427 30.9086V32.0995C19.7427 32.3696 19.9781 32.5903 20.2682 32.5903H23.2207C23.4541 32.6271 23.6391 32.7974 23.6654 33.0633V33.3513C23.6391 33.6047 23.4562 33.7896 23.2334 33.8107H21.7713C19.8268 33.8107 18.4414 35.1025 18.4414 36.9167V39.4488V39.515C18.4414 41.3187 19.6323 42.6021 21.5632 42.6021H25.6152C26.3425 42.6021 26.9322 42.0513 26.9322 41.3733V32.8941C26.9322 30.8382 25.8727 29.5401 23.3395 29.5401Z" fill="#233266"/>
</svg>
