<svg width="69" height="69" viewBox="0 0 69 69" fill="none" xmlns="http://www.w3.org/2000/svg">
<rect x="0.75" y="0.5" width="67" height="68" rx="3.5" stroke="#DCDCDC"/>
<path d="M51.0475 38.2027C53.3685 28.3734 47.2818 18.5237 37.4525 16.2027C27.6232 13.8817 17.7735 19.9684 15.4525 29.7977C13.1315 39.627 19.2182 49.4767 29.0475 51.7977C38.8768 54.1187 48.7265 48.032 51.0475 38.2027Z" fill="#5F259F"/>
<path d="M41.5517 29.2286C41.5517 28.5134 40.9387 27.9005 40.2236 27.9005H37.7716L32.1525 21.464C31.6417 20.851 30.8243 20.6467 30.007 20.851L28.0659 21.464C27.7594 21.5662 27.6572 21.9749 27.8615 22.1792L33.9915 28.0026H24.6944C24.3879 28.0026 24.1836 28.2069 24.1836 28.5134V29.5351C24.1836 30.2503 24.7966 30.8633 25.5117 30.8633H26.9421V35.7672C26.9421 39.4451 28.8832 41.5906 32.1525 41.5906C33.1742 41.5906 33.9915 41.4885 35.0131 41.0798V44.3491C35.0131 45.2686 35.7283 45.9837 36.6478 45.9837H38.0781C38.3846 45.9837 38.6911 45.6772 38.6911 45.3707V30.7611H41.0409C41.3474 30.7611 41.5517 30.5568 41.5517 30.2503V29.2286ZM35.0131 38.0148C34.4001 38.3213 33.5828 38.4235 32.9698 38.4235C31.3352 38.4235 30.5179 37.6062 30.5179 35.7672V30.8633H35.0131V38.0148Z" fill="white"/>
</svg>
