<svg width="74" height="24" viewBox="0 0 74 24" fill="none" xmlns="http://www.w3.org/2000/svg">
<path d="M29.1186 17H30.6548V12.5604H34.9801V11.2429H30.6548V8.14062H35.4325V6.81818H29.1186V17ZM38.858 6.81818H37.3217V17H38.858V6.81818ZM41.0952 17H47.245V15.6776H42.6314V6.81818H41.0952V17ZM47.1692 8.14062H50.3411V17H51.8723V8.14062H55.0492V6.81818H47.1692V8.14062ZM56.7905 17H63.2337V15.6776H58.3267V12.5604H62.8409V11.2429H58.3267V8.14062H63.174V6.81818H56.7905V17ZM65.226 17H66.7623V13.147H68.8503C68.8851 13.147 68.915 13.147 68.9498 13.147L71.0179 17H72.7679L70.5108 12.8786C71.7587 12.4162 72.3801 11.3771 72.3801 10.0099C72.3801 8.13565 71.2168 6.81818 68.8553 6.81818H65.226V17ZM66.7623 11.8246V8.13565H68.6912C70.2076 8.13565 70.834 8.85653 70.834 10.0099C70.834 11.1584 70.2076 11.8246 68.7111 11.8246H66.7623Z" fill="#171520"/>
<g clip-path="url(#clip0_218_1575)">
<path d="M3.94543 4.5H20.0546C20.1999 4.5 20.3421 4.54221 20.4638 4.62149C20.5856 4.70077 20.6817 4.81371 20.7405 4.94658C20.7993 5.07946 20.8182 5.22655 20.7949 5.36998C20.7717 5.51341 20.7073 5.64699 20.6096 5.7545L14.4451 12.5355C14.3196 12.6735 14.25 12.8534 14.25 13.04V18.3486C14.25 18.4721 14.2195 18.5936 14.1613 18.7025C14.103 18.8114 14.0188 18.9042 13.916 18.9726L10.916 20.9727C10.8031 21.048 10.6718 21.0912 10.5362 21.0977C10.4006 21.1043 10.2658 21.0739 10.1461 21.0099C10.0264 20.9458 9.92638 20.8505 9.85662 20.734C9.78687 20.6176 9.75002 20.4844 9.75002 20.3486V13.04C9.75002 12.8534 9.68048 12.6735 9.55498 12.5355L3.39048 5.7545C3.29274 5.64699 3.22834 5.51341 3.20509 5.36998C3.18185 5.22655 3.20077 5.07946 3.25955 4.94658C3.31833 4.81371 3.41444 4.70077 3.5362 4.62149C3.65797 4.54221 3.80014 4.5 3.94543 4.5V4.5Z" stroke="#171520" stroke-width="2" stroke-linecap="round" stroke-linejoin="round"/>
</g>
<defs>
<clipPath id="clip0_218_1575">
<rect width="24" height="24" fill="white"/>
</clipPath>
</defs>
</svg>
