<svg width="66" height="24" viewBox="0 0 66 24" fill="none" xmlns="http://www.w3.org/2000/svg">
<path d="M34.6719 9.4929H36.1534C36.1087 7.86222 34.6669 6.67898 32.5987 6.67898C30.5554 6.67898 28.9893 7.8473 28.9893 9.60227C28.9893 11.0192 30.0036 11.8494 31.6392 12.2919L32.8423 12.62C33.9311 12.9084 34.7713 13.2663 34.7713 14.1712C34.7713 15.1655 33.8217 15.8217 32.5142 15.8217C31.331 15.8217 30.3466 15.2947 30.2571 14.1861H28.7159C28.8153 16.0305 30.2422 17.169 32.5241 17.169C34.9155 17.169 36.2926 15.9112 36.2926 14.1861C36.2926 12.3516 34.657 11.6406 33.3643 11.3224L32.37 11.0639C31.5746 10.8601 30.5156 10.4872 30.5206 9.51278C30.5206 8.64773 31.3111 8.00639 32.5639 8.00639C33.7322 8.00639 34.5625 8.55327 34.6719 9.4929ZM46.9728 11.9091C46.9728 8.6527 45.024 6.67898 42.389 6.67898C39.7441 6.67898 37.8002 8.6527 37.8002 11.9091C37.8002 15.1605 39.7441 17.1392 42.389 17.1392C45.024 17.1392 46.9728 15.1655 46.9728 11.9091ZM45.4515 11.9091C45.4515 14.3899 44.139 15.7372 42.389 15.7372C40.6341 15.7372 39.3265 14.3899 39.3265 11.9091C39.3265 9.42827 40.6341 8.08097 42.389 8.08097C44.139 8.08097 45.4515 9.42827 45.4515 11.9091ZM48.8881 17H50.4244V13.147H52.5124C52.5472 13.147 52.5771 13.147 52.6119 13.147L54.68 17H56.43L54.1729 12.8786C55.4208 12.4162 56.0423 11.3771 56.0423 10.0099C56.0423 8.13565 54.8789 6.81818 52.5174 6.81818H48.8881V17ZM50.4244 11.8246V8.13565H52.3533C53.8697 8.13565 54.4961 8.85653 54.4961 10.0099C54.4961 11.1584 53.8697 11.8246 52.3732 11.8246H50.4244ZM57.4094 8.14062H60.5813V17H62.1126V8.14062H65.2894V6.81818H57.4094V8.14062Z" fill="#171520"/>
<g clip-path="url(#clip0_218_1574)">
<path d="M13.5 15.7494L17.25 19.4994L20.9999 15.75" stroke="#171520" stroke-width="2" stroke-linecap="round" stroke-linejoin="round"/>
<path d="M17.25 10.4994V19.4994" stroke="#171520" stroke-width="2" stroke-linecap="round" stroke-linejoin="round"/>
<path d="M4.5 11.9994H11.2499" stroke="#171520" stroke-width="2" stroke-linecap="round" stroke-linejoin="round"/>
<path d="M4.5 5.99939H17.2499" stroke="#171520" stroke-width="2" stroke-linecap="round" stroke-linejoin="round"/>
<path d="M4.5 17.9994H9.75" stroke="#171520" stroke-width="2" stroke-linecap="round" stroke-linejoin="round"/>
</g>
<defs>
<clipPath id="clip0_218_1574">
<rect width="24" height="24" fill="white"/>
</clipPath>
</defs>
</svg>
