<svg width="60" height="82" viewBox="0 0 60 82" fill="none" xmlns="http://www.w3.org/2000/svg">
<mask id="mask0_33_13" style="mask-type:alpha" maskUnits="userSpaceOnUse" x="0" y="0" width="60" height="60">
<rect width="60" height="60" rx="8" fill="#FEE1C0"/>
</mask>
<g mask="url(#mask0_33_13)">
<rect width="60" height="60" rx="8" fill="#F4F4F4"/>
</g>
<mask id="mask1_33_13" style="mask-type:alpha" maskUnits="userSpaceOnUse" x="19" y="20" width="20" height="29">
<path d="M19.8002 31.1246C19.1676 25.4314 23.6241 20.4522 29.3525 20.4522V20.4522C35.0808 20.4522 39.5374 25.4314 38.9048 31.1246L37.2275 46.2199C37.1108 47.2701 36.2232 48.0645 35.1666 48.0645H23.5384C22.4817 48.0645 21.5941 47.2701 21.4774 46.2199L19.8002 31.1246Z" fill="#17494D"/>
</mask>
<g mask="url(#mask1_33_13)">
<path fill-rule="evenodd" clip-rule="evenodd" d="M35.7029 46.0505L37.3801 30.9552C37.9118 26.1707 34.1665 21.9862 29.3525 21.9862C24.5384 21.9862 20.7932 26.1707 21.3248 30.9552L23.002 46.0505C23.0324 46.3238 23.2634 46.5305 23.5384 46.5305H35.1666C35.4415 46.5305 35.6725 46.3238 35.7029 46.0505ZM29.3525 20.4522C23.6241 20.4522 19.1676 25.4314 19.8002 31.1246L21.4774 46.2199C21.5941 47.2701 22.4817 48.0645 23.5384 48.0645H35.1666C36.2232 48.0645 37.1108 47.2701 37.2275 46.2199L38.9048 31.1246C39.5374 25.4314 35.0808 20.4522 29.3525 20.4522Z" fill="#1B4B66"/>
<path fill-rule="evenodd" clip-rule="evenodd" d="M35.7379 12.1327L37.1275 14.5176C38.1911 16.3431 39.8184 19.1612 41.2438 21.6839C41.9563 22.9448 42.6201 24.135 43.1383 25.0915C43.6443 26.0254 44.0419 26.7913 44.1919 27.1689C44.2604 27.3414 44.2819 27.5179 44.2913 27.6406C44.3019 27.778 44.3024 27.928 44.2971 28.0816C44.2865 28.3893 44.2508 28.7679 44.197 29.1965C44.089 30.0566 43.9002 31.1813 43.6566 32.4694C43.1688 35.0491 42.4519 38.3332 41.6918 41.5707C40.9317 44.8087 40.1257 48.011 39.4585 50.428C39.1254 51.6345 38.8239 52.6565 38.5778 53.3925C38.4557 53.7577 38.3411 54.071 38.238 54.3069C38.1876 54.4223 38.1295 54.5433 38.064 54.6498C38.0316 54.7027 37.985 54.7722 37.9234 54.8413C37.8732 54.8977 37.7507 55.0259 37.5525 55.1046C37.3987 55.1657 37.2495 55.1792 37.1794 55.1845C37.0885 55.1913 36.9924 55.192 36.8997 55.1899C36.7132 55.1857 36.4844 55.1691 36.2289 55.1445C35.7149 55.0948 35.0357 55.0071 34.2534 54.8945C32.6856 54.6691 30.6602 54.3381 28.6201 53.9945C27.3918 53.7877 26.1518 53.5752 25.001 53.3779C24.242 53.2479 23.5218 53.1244 22.8692 53.0136C21.1956 52.7295 20.0127 52.5369 19.6771 52.5081C19.2775 52.4738 18.915 52.2545 18.6616 52.0764C18.3747 51.8748 18.0667 51.6072 17.7531 51.3061C17.1235 50.7014 16.3997 49.8917 15.669 49.0184C14.204 47.2676 12.6535 45.1917 11.6719 43.8136L11.2539 43.2266L11.7505 42.7044C11.9114 42.5352 12.0779 42.3563 12.252 42.1693C13.267 41.0785 14.5409 39.7096 16.4826 38.364C18.7663 36.7814 21.9488 35.2417 26.7549 34.0853C31.05 33.0519 33.1024 29.9571 34.1612 26.1985C34.98 23.2919 35.1684 20.1329 35.3334 17.3659C35.3855 16.4924 35.4353 15.6579 35.5018 14.8828L35.7379 12.1327ZM37.0558 17.8789C36.8939 20.5653 36.6629 23.7632 35.8434 26.6724C34.6877 30.7749 32.3013 34.5484 27.1637 35.7845C22.537 36.8977 19.5599 38.3577 17.4781 39.8005C15.7025 41.031 14.5599 42.257 13.5469 43.344C13.5356 43.3561 13.5243 43.3682 13.513 43.3803C14.4678 44.6961 15.7743 46.4209 17.0094 47.8968C17.7245 48.7515 18.4014 49.5054 18.9637 50.0456C19.2461 50.3168 19.482 50.5169 19.6664 50.6464C19.7907 50.7338 19.8558 50.7632 19.8715 50.771C20.3397 50.8175 21.5926 51.0242 23.1618 51.2906C23.8204 51.4024 24.5425 51.5262 25.3019 51.6564C26.4495 51.853 27.6823 52.0643 28.9103 52.2711C30.949 52.6145 32.9567 52.9424 34.5021 53.1647C35.2763 53.276 35.9236 53.3592 36.3968 53.4049C36.515 53.4163 36.619 53.425 36.7088 53.4312C36.7685 53.2782 36.8392 53.0808 36.9203 52.8383C37.1516 52.1463 37.4435 51.1593 37.7738 49.9629C38.4333 47.5741 39.2336 44.3948 39.9904 41.1713C40.7473 37.9473 41.458 34.6901 41.9394 32.1447C42.1804 30.8701 42.3616 29.7862 42.4629 28.9788C42.5138 28.5736 42.5425 28.2538 42.5504 28.0216C42.5544 27.9052 42.5527 27.8249 42.5488 27.7746C42.5486 27.7718 42.5484 27.7691 42.5481 27.7667C42.426 27.479 42.0959 26.8362 41.6017 25.9241C41.0906 24.9808 40.4326 23.8009 39.7222 22.5436C38.8508 21.0015 37.9032 19.3476 37.0558 17.8789ZM42.5449 27.7393C42.5449 27.7392 42.5452 27.7403 42.5455 27.7427C42.5451 27.7405 42.5449 27.7393 42.5449 27.7393ZM37.0488 53.4417C37.0483 53.4417 37.0478 53.4418 37.0473 53.4418C37.0596 53.4401 37.0613 53.4408 37.0488 53.4417Z" fill="#1B4B66"/>
<path fill-rule="evenodd" clip-rule="evenodd" d="M34.691 35.136C35.1125 35.1781 35.42 35.554 35.3778 35.9755L34.6108 41.8979C34.5687 42.3194 34.1928 42.627 33.7713 42.5848C33.3498 42.5427 33.0423 42.1668 33.0844 41.7453L33.8514 35.8229C33.8936 35.4014 34.2695 35.0938 34.691 35.136Z" fill="#1B4B66"/>
</g>
<path fill-rule="evenodd" clip-rule="evenodd" d="M27.39 18.1511C27.0599 18.1511 26.7668 18.3624 26.6624 18.6756L25.916 20.9148C26.0116 20.8939 26.1105 20.8728 26.2121 20.8517C27.1439 20.6581 28.3586 20.4522 29.3524 20.4522C30.3462 20.4522 31.5609 20.6581 32.4927 20.8517C32.5943 20.8728 32.6932 20.8939 32.7888 20.9148L32.0424 18.6756C31.938 18.3624 31.6449 18.1511 31.3148 18.1511H27.39ZM33.7504 22.7256L33.7444 22.7239L33.7229 22.7181C33.7035 22.7128 33.6742 22.705 33.636 22.6949C33.5595 22.6747 33.4472 22.6457 33.3065 22.6107C33.0246 22.5406 32.6301 22.4471 32.1806 22.3536C31.2669 22.1638 30.1806 21.9862 29.3524 21.9862C28.5242 21.9862 27.4379 22.1638 26.5242 22.3536C26.0747 22.4471 25.6802 22.5406 25.3983 22.6107C25.2576 22.6457 25.1453 22.6747 25.0688 22.6949C25.0306 22.705 25.0013 22.7128 24.9819 22.7181L24.9604 22.7239L24.9544 22.7256L23.5679 23.1081L25.2071 18.1905C25.5203 17.2509 26.3996 16.6171 27.39 16.6171H31.3148C32.3052 16.6171 33.1845 17.2509 33.4977 18.1905L35.1369 23.1081L33.7504 22.7256Z" fill="#1B4B66"/>
<path d="M27.8184 14.3161V18.1511H30.8864V14.3161C30.8864 13.4689 30.1996 12.7821 29.3524 12.7821C28.5052 12.7821 27.8184 13.4689 27.8184 14.3161Z" fill="#1B4B66"/>
<path d="M30.4876 13.3184L30.8867 14.3161L22.4589 14.6402C21.6554 14.6712 21.0203 13.9666 21.134 13.1707C21.2277 12.5149 21.8035 12.037 22.4653 12.0658L29.13 12.3555C29.7324 12.3817 30.2637 12.7585 30.4876 13.3184Z" fill="#1B4B66"/>
<path d="M34.2313 44.1226C34.2313 44.5463 33.8879 44.8897 33.4643 44.8897C33.0407 44.8897 32.6973 44.5463 32.6973 44.1226C32.6973 43.699 33.0407 43.3556 33.4643 43.3556C33.8879 43.3556 34.2313 43.699 34.2313 44.1226Z" fill="#1B4B66"/>
<mask id="mask2_33_13" style="mask-type:alpha" maskUnits="userSpaceOnUse" x="19" y="20" width="20" height="29">
<path d="M19.8002 31.1246C19.1676 25.4314 23.6241 20.4522 29.3525 20.4522V20.4522C35.0808 20.4522 39.5374 25.4314 38.9048 31.1246L37.2275 46.2199C37.1108 47.2701 36.2232 48.0645 35.1666 48.0645H23.5384C22.4817 48.0645 21.5941 47.2701 21.4774 46.2199L19.8002 31.1246Z" fill="#17494D"/>
</mask>
<g mask="url(#mask2_33_13)">
<path d="M28.5 34L20.5 37L21.5 41L23 47.5H34.5L36.5 46.5L37.5 38.5L38.5 31L37 25.5L35.5 25L33.5 29.5L31.5 32.5L28.5 34Z" fill="url(#paint0_linear_33_13)"/>
<path fill-rule="evenodd" clip-rule="evenodd" d="M35.7029 46.0505L37.3801 30.9552C37.9118 26.1707 34.1665 21.9862 29.3525 21.9862C24.5384 21.9862 20.7932 26.1707 21.3248 30.9552L23.002 46.0505C23.0324 46.3238 23.2634 46.5305 23.5384 46.5305H35.1666C35.4415 46.5305 35.6725 46.3238 35.7029 46.0505ZM29.3525 20.4522C23.6241 20.4522 19.1676 25.4314 19.8002 31.1246L21.4774 46.2199C21.5941 47.2701 22.4817 48.0645 23.5384 48.0645H35.1666C36.2232 48.0645 37.1108 47.2701 37.2275 46.2199L38.9048 31.1246C39.5374 25.4314 35.0808 20.4522 29.3525 20.4522Z" fill="#1B4B66"/>
<path fill-rule="evenodd" clip-rule="evenodd" d="M35.7379 12.1327L37.1275 14.5176C38.1911 16.3431 39.8184 19.1612 41.2438 21.6839C41.9563 22.9448 42.6201 24.135 43.1383 25.0915C43.6443 26.0254 44.0419 26.7913 44.1919 27.1689C44.2604 27.3414 44.2819 27.5179 44.2913 27.6406C44.3019 27.778 44.3024 27.928 44.2971 28.0816C44.2865 28.3893 44.2508 28.7679 44.197 29.1965C44.089 30.0566 43.9002 31.1813 43.6566 32.4694C43.1688 35.0491 42.4519 38.3332 41.6918 41.5707C40.9317 44.8087 40.1257 48.011 39.4585 50.428C39.1254 51.6345 38.8239 52.6565 38.5778 53.3925C38.4557 53.7577 38.3411 54.071 38.238 54.3069C38.1876 54.4223 38.1295 54.5433 38.064 54.6498C38.0316 54.7027 37.985 54.7722 37.9234 54.8413C37.8732 54.8977 37.7507 55.0259 37.5525 55.1046C37.3987 55.1657 37.2495 55.1792 37.1794 55.1845C37.0885 55.1913 36.9924 55.192 36.8997 55.1899C36.7132 55.1857 36.4844 55.1691 36.2289 55.1445C35.7149 55.0948 35.0357 55.0071 34.2534 54.8945C32.6856 54.6691 30.6602 54.3381 28.6201 53.9945C27.3918 53.7877 26.1518 53.5752 25.001 53.3779C24.242 53.2479 23.5218 53.1244 22.8692 53.0136C21.1956 52.7295 20.0127 52.5369 19.6771 52.5081C19.2775 52.4738 18.915 52.2545 18.6616 52.0764C18.3747 51.8748 18.0667 51.6072 17.7531 51.3061C17.1235 50.7014 16.3997 49.8917 15.669 49.0184C14.204 47.2676 12.6535 45.1917 11.6719 43.8136L11.2539 43.2266L11.7505 42.7044C11.9114 42.5352 12.0779 42.3563 12.252 42.1693C13.267 41.0785 14.5409 39.7096 16.4826 38.364C18.7663 36.7814 21.9488 35.2417 26.7549 34.0853C31.05 33.0519 33.1024 29.9571 34.1612 26.1985C34.98 23.2919 35.1684 20.1329 35.3334 17.3659C35.3855 16.4924 35.4353 15.6579 35.5018 14.8828L35.7379 12.1327ZM37.0558 17.8789C36.8939 20.5653 36.6629 23.7632 35.8434 26.6724C34.6877 30.7749 32.3013 34.5484 27.1637 35.7845C22.537 36.8977 19.5599 38.3577 17.4781 39.8005C15.7025 41.031 14.5599 42.257 13.5469 43.344C13.5356 43.3561 13.5243 43.3682 13.513 43.3803C14.4678 44.6961 15.7743 46.4209 17.0094 47.8968C17.7245 48.7515 18.4014 49.5054 18.9637 50.0456C19.2461 50.3168 19.482 50.5169 19.6664 50.6464C19.7907 50.7338 19.8558 50.7632 19.8715 50.771C20.3397 50.8175 21.5926 51.0242 23.1618 51.2906C23.8204 51.4024 24.5425 51.5262 25.3019 51.6564C26.4495 51.853 27.6823 52.0643 28.9103 52.2711C30.949 52.6145 32.9567 52.9424 34.5021 53.1647C35.2763 53.276 35.9236 53.3592 36.3968 53.4049C36.515 53.4163 36.619 53.425 36.7088 53.4312C36.7685 53.2782 36.8392 53.0808 36.9203 52.8383C37.1516 52.1463 37.4435 51.1593 37.7738 49.9629C38.4333 47.5741 39.2336 44.3948 39.9904 41.1713C40.7473 37.9473 41.458 34.6901 41.9394 32.1447C42.1804 30.8701 42.3616 29.7862 42.4629 28.9788C42.5138 28.5736 42.5425 28.2538 42.5504 28.0216C42.5544 27.9052 42.5527 27.8249 42.5488 27.7746C42.5486 27.7718 42.5484 27.7691 42.5481 27.7667C42.426 27.479 42.0959 26.8362 41.6017 25.9241C41.0906 24.9808 40.4326 23.8009 39.7222 22.5436C38.8508 21.0015 37.9032 19.3476 37.0558 17.8789ZM42.5449 27.7393C42.5449 27.7392 42.5452 27.7403 42.5455 27.7427C42.5451 27.7405 42.5449 27.7393 42.5449 27.7393ZM37.0488 53.4417C37.0483 53.4417 37.0478 53.4418 37.0473 53.4418C37.0596 53.4401 37.0613 53.4408 37.0488 53.4417Z" fill="#1B4B66"/>
<path fill-rule="evenodd" clip-rule="evenodd" d="M34.691 35.136C35.1125 35.1781 35.42 35.554 35.3778 35.9755L34.6108 41.8979C34.5687 42.3194 34.1928 42.627 33.7713 42.5848C33.3498 42.5427 33.0423 42.1668 33.0844 41.7453L33.8514 35.8229C33.8936 35.4014 34.2695 35.0938 34.691 35.136Z" fill="#1B4B66"/>
</g>
<path fill-rule="evenodd" clip-rule="evenodd" d="M27.39 18.1511C27.0599 18.1511 26.7668 18.3624 26.6624 18.6756L25.916 20.9148C26.0116 20.8939 26.1105 20.8728 26.2121 20.8517C27.1439 20.6581 28.3586 20.4522 29.3524 20.4522C30.3462 20.4522 31.5609 20.6581 32.4927 20.8517C32.5943 20.8728 32.6932 20.8939 32.7888 20.9148L32.0424 18.6756C31.938 18.3624 31.6449 18.1511 31.3148 18.1511H27.39ZM33.7504 22.7256L33.7444 22.7239L33.7229 22.7181C33.7035 22.7128 33.6742 22.705 33.636 22.6949C33.5595 22.6747 33.4472 22.6457 33.3065 22.6107C33.0246 22.5406 32.6301 22.4471 32.1806 22.3536C31.2669 22.1638 30.1806 21.9862 29.3524 21.9862C28.5242 21.9862 27.4379 22.1638 26.5242 22.3536C26.0747 22.4471 25.6802 22.5406 25.3983 22.6107C25.2576 22.6457 25.1453 22.6747 25.0688 22.6949C25.0306 22.705 25.0013 22.7128 24.9819 22.7181L24.9604 22.7239L24.9544 22.7256L23.5679 23.1081L25.2071 18.1905C25.5203 17.2509 26.3996 16.6171 27.39 16.6171H31.3148C32.3052 16.6171 33.1845 17.2509 33.4977 18.1905L35.1369 23.1081L33.7504 22.7256Z" fill="#1B4B66"/>
<path d="M27.8184 14.3161V18.1511H30.8864V14.3161C30.8864 13.4689 30.1996 12.7821 29.3524 12.7821C28.5052 12.7821 27.8184 13.4689 27.8184 14.3161Z" fill="#1B4B66"/>
<path d="M30.4876 13.3184L30.8867 14.3161L22.4589 14.6402C21.6554 14.6712 21.0203 13.9666 21.134 13.1707C21.2277 12.5149 21.8035 12.037 22.4653 12.0658L29.13 12.3555C29.7324 12.3817 30.2637 12.7585 30.4876 13.3184Z" fill="#1B4B66"/>
<path d="M34.2313 44.1226C34.2313 44.5463 33.8879 44.8897 33.4643 44.8897C33.0407 44.8897 32.6973 44.5463 32.6973 44.1226C32.6973 43.699 33.0407 43.3556 33.4643 43.3556C33.8879 43.3556 34.2313 43.699 34.2313 44.1226Z" fill="#1B4B66"/>
<path d="M6.44904 77H11.9718V75.8665H7.7658V73.1946H11.6351V72.0653H7.7658V69.4062H11.9206V68.2727H6.44904V77ZM14.3826 79.4545C15.4352 79.4545 16.1 78.9048 16.4792 77.8736L19.1852 70.4673L17.8088 70.4545L16.1511 75.5341H16.0829L14.4252 70.4545H13.0616L15.4565 77.0852L15.2988 77.5199C14.975 78.3892 14.519 78.4616 13.8201 78.2699L13.5133 79.3139C13.6667 79.3821 13.9991 79.4545 14.3826 79.4545ZM22.9725 77.1321C24.4 77.1321 25.41 76.429 25.6998 75.3636L24.4938 75.1463C24.2637 75.7642 23.7097 76.0795 22.9853 76.0795C21.8944 76.0795 21.1614 75.3722 21.1273 74.1108H25.7807V73.6591C25.7807 71.294 24.3659 70.3693 22.883 70.3693C21.0591 70.3693 19.8574 71.7585 19.8574 73.7699C19.8574 75.8026 21.0421 77.1321 22.9725 77.1321ZM21.1316 73.1562C21.1827 72.2273 21.856 71.4219 22.8915 71.4219C23.8801 71.4219 24.5279 72.1548 24.5321 73.1562H21.1316ZM28.6017 77H29.8972L31.2267 72.2741H31.3248L32.6543 77H33.954L35.8759 70.4545H34.5591L33.285 75.2401H33.2211L31.9426 70.4545H30.6259L29.339 75.2614H29.275L27.9924 70.4545H26.6756L28.6017 77ZM39.7069 77.1321C41.1344 77.1321 42.1444 76.429 42.4341 75.3636L41.2282 75.1463C40.998 75.7642 40.4441 76.0795 39.7196 76.0795C38.6287 76.0795 37.8958 75.3722 37.8617 74.1108H42.5151V73.6591C42.5151 71.294 41.1003 70.3693 39.6174 70.3693C37.7935 70.3693 36.5918 71.7585 36.5918 73.7699C36.5918 75.8026 37.7765 77.1321 39.7069 77.1321ZM37.8659 73.1562C37.9171 72.2273 38.5904 71.4219 39.6259 71.4219C40.6145 71.4219 41.2623 72.1548 41.2665 73.1562H37.8659ZM45.8336 77.1449C46.916 77.1449 47.5254 76.5952 47.7683 76.1051H47.8194V77H49.0637V72.6534C49.0637 70.7486 47.5637 70.3693 46.524 70.3693C45.3393 70.3693 44.2484 70.8466 43.8223 72.0398L45.0197 72.3125C45.2072 71.848 45.6845 71.4006 46.541 71.4006C47.3635 71.4006 47.7853 71.831 47.7853 72.5724V72.6023C47.7853 73.0668 47.3081 73.0582 46.1319 73.1946C44.8919 73.3395 43.622 73.6634 43.622 75.1506C43.622 76.4375 44.5893 77.1449 45.8336 77.1449ZM46.1106 76.1222C45.3904 76.1222 44.8706 75.7983 44.8706 75.1676C44.8706 74.4858 45.4757 74.2429 46.2129 74.1449C46.6262 74.0895 47.6064 73.9787 47.7896 73.7955V74.6392C47.7896 75.4148 47.1717 76.1222 46.1106 76.1222ZM50.7608 77H52.035V73.0028C52.035 72.1463 52.6955 71.5284 53.5989 71.5284C53.8631 71.5284 54.1614 71.5753 54.2637 71.6051V70.3864C54.1358 70.3693 53.8844 70.3565 53.7225 70.3565C52.9554 70.3565 52.2992 70.7912 52.0605 71.4943H51.9924V70.4545H50.7608V77Z" fill="#171520"/>
<defs>
<linearGradient id="paint0_linear_33_13" x1="29" y1="22.5" x2="33" y2="47" gradientUnits="userSpaceOnUse">
<stop stop-color="white" stop-opacity="0"/>
<stop offset="1" stop-color="#17494D" stop-opacity="0.57"/>
</linearGradient>
</defs>
</svg>
