<svg width="60" height="82" viewBox="0 0 60 82" fill="none" xmlns="http://www.w3.org/2000/svg">
<mask id="mask0_33_3" style="mask-type:alpha" maskUnits="userSpaceOnUse" x="0" y="0" width="60" height="60">
<rect width="60" height="60" rx="8" fill="#FEE1C0"/>
</mask>
<g mask="url(#mask0_33_3)">
<rect width="60" height="60" rx="8" fill="#F4F4F4"/>
</g>
<path fill-rule="evenodd" clip-rule="evenodd" d="M19.1995 24.0352C18.7373 24.0352 18.341 24.3653 18.2575 24.8199L15.0667 42.1922C14.7425 43.9574 16.098 45.5845 17.8927 45.5845H40.3924C42.164 45.5845 43.5136 43.9968 43.2281 42.2483L40.3857 24.8386C40.3101 24.3754 39.9099 24.0352 39.4405 24.0352H19.1995ZM16.3736 24.4739C16.6241 23.1101 17.8129 22.1197 19.1995 22.1197H39.4405C40.8486 22.1197 42.0493 23.1402 42.2762 24.53L45.1186 41.9396C45.5943 44.8538 43.3451 47.5 40.3924 47.5H17.8927C14.9015 47.5 12.6424 44.7882 13.1827 41.8462L16.3736 24.4739Z" fill="#1B4B66"/>
<path fill-rule="evenodd" clip-rule="evenodd" d="M29.5755 15.4155C26.0298 15.4155 22.9431 18.0178 22.1251 21.6408H37.0259C36.2079 18.0178 33.1212 15.4155 29.5755 15.4155ZM38.9794 21.6408C38.1276 17.003 34.2412 13.5 29.5755 13.5C24.9098 13.5 21.0234 17.003 20.1716 21.6408C20.0577 22.2609 19.998 22.9013 19.998 23.5563H39.153C39.153 22.9013 39.0933 22.2609 38.9794 21.6408Z" fill="#1B4B66"/>
<path fill-rule="evenodd" clip-rule="evenodd" d="M20.4883 28.1994C20.5602 27.7322 20.9622 27.3873 21.4349 27.3873H34.8433C35.3723 27.3873 35.8011 27.8161 35.8011 28.3451C35.8011 28.874 35.3723 29.3028 34.8433 29.3028H22.2566L20.466 40.9414C20.3856 41.4642 19.8966 41.8228 19.3738 41.7424C18.851 41.6619 18.4924 41.1729 18.5728 40.6501L20.4883 28.1994Z" fill="#1B4B66"/>
<path fill-rule="evenodd" clip-rule="evenodd" d="M30.5332 41.2747C30.5332 40.7457 30.962 40.3169 31.4909 40.3169H38.1952C38.7241 40.3169 39.1529 40.7457 39.1529 41.2747C39.1529 41.8036 38.7241 42.2324 38.1952 42.2324H31.4909C30.962 42.2324 30.5332 41.8036 30.5332 41.2747Z" fill="#1B4B66"/>
<path d="M17.5 24.5L14 43.5L17 46.5L43 46L44 42.5L41.5 25L39.5 23H19.5L17.5 24.5Z" fill="url(#paint0_linear_33_3)"/>
<path fill-rule="evenodd" clip-rule="evenodd" d="M19.1995 24.0352C18.7373 24.0352 18.341 24.3653 18.2575 24.8199L15.0667 42.1922C14.7425 43.9574 16.098 45.5845 17.8927 45.5845H40.3924C42.164 45.5845 43.5136 43.9968 43.2281 42.2483L40.3857 24.8386C40.3101 24.3754 39.9099 24.0352 39.4405 24.0352H19.1995ZM16.3736 24.4739C16.6241 23.1101 17.8129 22.1197 19.1995 22.1197H39.4405C40.8486 22.1197 42.0493 23.1402 42.2762 24.53L45.1186 41.9396C45.5943 44.8538 43.3451 47.5 40.3924 47.5H17.8927C14.9015 47.5 12.6424 44.7882 13.1827 41.8462L16.3736 24.4739Z" fill="#1B4B66"/>
<path fill-rule="evenodd" clip-rule="evenodd" d="M29.5755 15.4155C26.0298 15.4155 22.9431 18.0178 22.1251 21.6408H37.0259C36.2079 18.0178 33.1212 15.4155 29.5755 15.4155ZM38.9794 21.6408C38.1276 17.003 34.2412 13.5 29.5755 13.5C24.9098 13.5 21.0234 17.003 20.1716 21.6408C20.0577 22.2609 19.998 22.9013 19.998 23.5563H39.153C39.153 22.9013 39.0933 22.2609 38.9794 21.6408Z" fill="#1B4B66"/>
<path fill-rule="evenodd" clip-rule="evenodd" d="M20.4883 28.1994C20.5602 27.7322 20.9622 27.3873 21.4349 27.3873H34.8433C35.3723 27.3873 35.8011 27.8161 35.8011 28.3451C35.8011 28.874 35.3723 29.3028 34.8433 29.3028H22.2566L20.466 40.9414C20.3856 41.4642 19.8966 41.8228 19.3738 41.7424C18.851 41.6619 18.4924 41.1729 18.5728 40.6501L20.4883 28.1994Z" fill="#1B4B66"/>
<path fill-rule="evenodd" clip-rule="evenodd" d="M30.5332 41.2747C30.5332 40.7457 30.962 40.3169 31.4909 40.3169H38.1952C38.7241 40.3169 39.1529 40.7457 39.1529 41.2747C39.1529 41.8036 38.7241 42.2324 38.1952 42.2324H31.4909C30.962 42.2324 30.5332 41.8036 30.5332 41.2747Z" fill="#1B4B66"/>
<path d="M1.65607 77H2.97283V73.1946H7.32369V77H8.64471V68.2727H7.32369V72.0653H2.97283V68.2727H1.65607V77ZM12.3649 77.1449C13.4473 77.1449 14.0566 76.5952 14.2995 76.1051H14.3507V77H15.595V72.6534C15.595 70.7486 14.095 70.3693 13.0552 70.3693C11.8706 70.3693 10.7797 70.8466 10.3535 72.0398L11.551 72.3125C11.7385 71.848 12.2157 71.4006 13.0723 71.4006C13.8947 71.4006 14.3166 71.831 14.3166 72.5724V72.6023C14.3166 73.0668 13.8393 73.0582 12.6632 73.1946C11.4231 73.3395 10.1532 73.6634 10.1532 75.1506C10.1532 76.4375 11.1206 77.1449 12.3649 77.1449ZM12.6419 76.1222C11.9217 76.1222 11.4018 75.7983 11.4018 75.1676C11.4018 74.4858 12.0069 74.2429 12.7441 74.1449C13.1575 74.0895 14.1376 73.9787 14.3208 73.7955V74.6392C14.3208 75.4148 13.7029 76.1222 12.6419 76.1222ZM18.5662 73.1136C18.5662 72.0696 19.2054 71.473 20.0918 71.473C20.9569 71.473 21.481 72.0398 21.481 72.9901V77H22.7551V72.8366C22.7551 71.2173 21.8645 70.3693 20.5265 70.3693C19.5421 70.3693 18.8986 70.8253 18.5961 71.5199H18.5151V70.4545H17.2921V77H18.5662V73.1136ZM26.9142 77.1278C28.1074 77.1278 28.5762 76.3991 28.8063 75.9815H28.9128V77H30.1571V68.2727H28.883V71.5156H28.8063C28.5762 71.1108 28.1415 70.3693 26.9228 70.3693C25.3418 70.3693 24.1784 71.6179 24.1784 73.7401C24.1784 75.858 25.3248 77.1278 26.9142 77.1278ZM27.1955 76.0412C26.0577 76.0412 25.4654 75.0398 25.4654 73.7273C25.4654 72.4276 26.0449 71.4517 27.1955 71.4517C28.3077 71.4517 28.9043 72.3594 28.9043 73.7273C28.9043 75.1037 28.2949 76.0412 27.1955 76.0412ZM32.0779 77H33.3223V75.9815H33.4288C33.6589 76.3991 34.1277 77.1278 35.3208 77.1278C36.9061 77.1278 38.0566 75.858 38.0566 73.7401C38.0566 71.6179 36.889 70.3693 35.3081 70.3693C34.0936 70.3693 33.6547 71.1108 33.4288 71.5156H33.3521V68.2727H32.0779V77ZM33.3265 73.7273C33.3265 72.3594 33.9231 71.4517 35.0353 71.4517C36.1902 71.4517 36.7697 72.4276 36.7697 73.7273C36.7697 75.0398 36.1731 76.0412 35.0353 76.0412C33.9402 76.0412 33.3265 75.1037 33.3265 73.7273ZM41.3922 77.1449C42.4746 77.1449 43.084 76.5952 43.3269 76.1051H43.378V77H44.6223V72.6534C44.6223 70.7486 43.1223 70.3693 42.0826 70.3693C40.8979 70.3693 39.807 70.8466 39.3809 72.0398L40.5783 72.3125C40.7658 71.848 41.2431 71.4006 42.0996 71.4006C42.9221 71.4006 43.3439 71.831 43.3439 72.5724V72.6023C43.3439 73.0668 42.8667 73.0582 41.6905 73.1946C40.4505 73.3395 39.1806 73.6634 39.1806 75.1506C39.1806 76.4375 40.1479 77.1449 41.3922 77.1449ZM41.6692 76.1222C40.949 76.1222 40.4292 75.7983 40.4292 75.1676C40.4292 74.4858 41.0343 74.2429 41.7715 74.1449C42.1848 74.0895 43.165 73.9787 43.3482 73.7955V74.6392C43.3482 75.4148 42.7303 76.1222 41.6692 76.1222ZM49.0637 79.5909C50.7299 79.5909 52.0169 78.8281 52.0169 77.1449V70.4545H50.7683V71.5156H50.6745C50.4487 71.1108 49.997 70.3693 48.7782 70.3693C47.1973 70.3693 46.0339 71.6179 46.0339 73.7017C46.0339 75.7898 47.2228 76.902 48.7697 76.902C49.9714 76.902 50.4359 76.2244 50.666 75.8068H50.747V77.0938C50.747 78.1207 50.0439 78.5639 49.0765 78.5639C48.0154 78.5639 47.6021 78.0312 47.3762 77.6562L46.2811 78.108C46.6262 78.9091 47.4998 79.5909 49.0637 79.5909ZM49.051 75.8452C47.9132 75.8452 47.3208 74.9716 47.3208 73.6847C47.3208 72.4276 47.9004 71.4517 49.051 71.4517C50.1632 71.4517 50.7598 72.3594 50.7598 73.6847C50.7598 75.0355 50.1504 75.8452 49.051 75.8452ZM58.6305 72.0526C58.3663 71.0341 57.5694 70.3693 56.1547 70.3693C54.676 70.3693 53.6277 71.1491 53.6277 72.3082C53.6277 73.2372 54.1902 73.8551 55.4174 74.1278L56.5254 74.3707C57.1561 74.5114 57.4501 74.7926 57.4501 75.2017C57.4501 75.7088 56.9089 76.1051 56.0737 76.1051C55.3109 76.1051 54.8208 75.777 54.6674 75.1335L53.4359 75.321C53.649 76.4801 54.612 77.1321 56.0822 77.1321C57.6632 77.1321 58.7583 76.2926 58.7583 75.108C58.7583 74.1832 58.1703 73.6122 56.9686 73.3352L55.9288 73.0966C55.2086 72.9261 54.8975 72.6832 54.9018 72.2401C54.8975 71.7372 55.443 71.3793 56.1674 71.3793C56.96 71.3793 57.3265 71.8182 57.4757 72.2571L58.6305 72.0526Z" fill="#171520"/>
<defs>
<linearGradient id="paint0_linear_33_3" x1="28.1667" y1="20.3889" x2="30.8267" y2="46.3877" gradientUnits="userSpaceOnUse">
<stop stop-color="white" stop-opacity="0"/>
<stop offset="1" stop-color="#17494D" stop-opacity="0.57"/>
</linearGradient>
</defs>
</svg>
