<svg width="60" height="82" viewBox="0 0 60 82" fill="none" xmlns="http://www.w3.org/2000/svg">
<mask id="mask0_33_10" style="mask-type:alpha" maskUnits="userSpaceOnUse" x="0" y="0" width="60" height="60">
<rect width="60" height="60" rx="8" fill="#FEE1C0"/>
</mask>
<g mask="url(#mask0_33_10)">
<rect width="60" height="60" rx="8" fill="#F4F4F4"/>
</g>
<path fill-rule="evenodd" clip-rule="evenodd" d="M29.1 47.2C35.0647 47.2 39.9 42.3647 39.9 36.4C39.9 30.4353 35.0647 25.6 29.1 25.6C23.1353 25.6 18.3 30.4353 18.3 36.4C18.3 42.3647 23.1353 47.2 29.1 47.2ZM29.1 49C36.0588 49 41.7 43.3588 41.7 36.4C41.7 29.4412 36.0588 23.8 29.1 23.8C22.1412 23.8 16.5 29.4412 16.5 36.4C16.5 43.3588 22.1412 49 29.1 49Z" fill="#1B4B66"/>
<path fill-rule="evenodd" clip-rule="evenodd" d="M24.5245 13.2434C24.6913 13.087 24.9113 13 25.14 13H32.16C32.3887 13 32.6087 13.087 32.7755 13.2434L39.0155 19.0934C39.3776 19.4328 39.3966 20.0013 39.058 20.3641L33.5979 26.2141C33.3449 26.4852 32.9515 26.5733 32.607 26.4361C32.6069 26.4361 32.6068 26.4361 32.6067 26.436C32.6067 26.436 32.6067 26.436 32.6066 26.436C32.6065 26.4359 32.6064 26.4359 32.6063 26.4359C32.6062 26.4358 32.6062 26.4358 32.6061 26.4358C32.606 26.4357 32.6059 26.4357 32.6057 26.4356L32.6056 26.4356L32.5944 26.4313C32.5834 26.427 32.5653 26.4201 32.5405 26.411C32.4908 26.3927 32.4144 26.3653 32.3141 26.3319C32.1135 26.265 31.8189 26.1743 31.4542 26.0831C30.721 25.8998 29.7248 25.72 28.65 25.72C27.5819 25.72 26.8003 25.8977 26.3021 26.0638C26.0524 26.1471 25.8723 26.2279 25.7619 26.2831C25.7066 26.3107 25.6688 26.332 25.6483 26.3439C25.6392 26.3492 25.6335 26.3527 25.6313 26.354C25.2844 26.5802 24.8272 26.5404 24.5245 26.2566L18.2845 20.4066C18.103 20.2364 18 19.9988 18 19.75C18 19.5012 18.103 19.2636 18.2845 19.0934L24.5245 13.2434ZM32.6807 24.5588C32.4664 24.4915 32.1996 24.4141 31.8908 24.3369C31.064 24.1302 29.9152 23.92 28.65 23.92C27.3781 23.92 26.4047 24.1323 25.7329 24.3562C25.5709 24.4102 25.4269 24.4647 25.3006 24.5169L20.2159 19.75L25.4959 14.8H31.8041L37.1293 19.7924L32.6807 24.5588Z" fill="#1B4B66"/>
<path fill-rule="evenodd" clip-rule="evenodd" d="M38.3999 20.65H18.8999V18.85H38.3999V20.65Z" fill="#1B4B66"/>
<path fill-rule="evenodd" clip-rule="evenodd" d="M22.7341 40.6127C23.1413 40.3277 23.7024 40.4267 23.9875 40.8339C24.8944 42.1295 27.6645 44.3482 31.454 42.7692C31.9128 42.5781 32.4398 42.795 32.6309 43.2539C32.8221 43.7127 32.6052 44.2396 32.1463 44.4308C27.2959 46.4518 23.7059 43.5705 22.5129 41.8661C22.2278 41.4589 22.3269 40.8977 22.7341 40.6127Z" fill="#1B4B66"/>
<path fill-rule="evenodd" clip-rule="evenodd" d="M17.3623 37C17.3623 30.5728 22.5726 25.3625 28.9998 25.3625C35.427 25.3625 40.6373 30.5728 40.6373 37C40.6373 43.4272 35.427 48.6375 28.9998 48.6375C22.5726 48.6375 17.3623 43.4272 17.3623 37Z" fill="url(#paint0_linear_33_10)"/>
<path fill-rule="evenodd" clip-rule="evenodd" d="M29.1 47.2C35.0647 47.2 39.9 42.3647 39.9 36.4C39.9 30.4353 35.0647 25.6 29.1 25.6C23.1353 25.6 18.3 30.4353 18.3 36.4C18.3 42.3647 23.1353 47.2 29.1 47.2ZM29.1 49C36.0588 49 41.7 43.3588 41.7 36.4C41.7 29.4412 36.0588 23.8 29.1 23.8C22.1412 23.8 16.5 29.4412 16.5 36.4C16.5 43.3588 22.1412 49 29.1 49Z" fill="#1B4B66"/>
<path fill-rule="evenodd" clip-rule="evenodd" d="M24.5245 13.2434C24.6913 13.087 24.9113 13 25.14 13H32.16C32.3887 13 32.6087 13.087 32.7755 13.2434L39.0155 19.0934C39.3776 19.4328 39.3966 20.0013 39.058 20.3641L33.5979 26.2141C33.3449 26.4852 32.9515 26.5733 32.607 26.4361C32.6069 26.4361 32.6068 26.4361 32.6067 26.436C32.6067 26.436 32.6067 26.436 32.6066 26.436C32.6065 26.4359 32.6064 26.4359 32.6063 26.4359C32.6062 26.4358 32.6062 26.4358 32.6061 26.4358C32.606 26.4357 32.6059 26.4357 32.6057 26.4356L32.6056 26.4356L32.5944 26.4313C32.5834 26.427 32.5653 26.4201 32.5405 26.411C32.4908 26.3927 32.4144 26.3653 32.3141 26.3319C32.1135 26.265 31.8189 26.1743 31.4542 26.0831C30.721 25.8998 29.7248 25.72 28.65 25.72C27.5819 25.72 26.8003 25.8977 26.3021 26.0638C26.0524 26.1471 25.8723 26.2279 25.7619 26.2831C25.7066 26.3107 25.6688 26.332 25.6483 26.3439C25.6392 26.3492 25.6335 26.3527 25.6313 26.354C25.2844 26.5802 24.8272 26.5404 24.5245 26.2566L18.2845 20.4066C18.103 20.2364 18 19.9988 18 19.75C18 19.5012 18.103 19.2636 18.2845 19.0934L24.5245 13.2434ZM32.6807 24.5588C32.4664 24.4915 32.1996 24.4141 31.8908 24.3369C31.064 24.1302 29.9152 23.92 28.65 23.92C27.3781 23.92 26.4047 24.1323 25.7329 24.3562C25.5709 24.4102 25.4269 24.4647 25.3006 24.5169L20.2159 19.75L25.4959 14.8H31.8041L37.1293 19.7924L32.6807 24.5588Z" fill="#1B4B66"/>
<path fill-rule="evenodd" clip-rule="evenodd" d="M38.3999 20.65H18.8999V18.85H38.3999V20.65Z" fill="#1B4B66"/>
<path fill-rule="evenodd" clip-rule="evenodd" d="M22.7341 40.6127C23.1413 40.3277 23.7024 40.4267 23.9875 40.8339C24.8944 42.1295 27.6645 44.3482 31.454 42.7692C31.9128 42.5781 32.4398 42.795 32.6309 43.2539C32.8221 43.7127 32.6052 44.2396 32.1463 44.4308C27.2959 46.4518 23.7059 43.5705 22.5129 41.8661C22.2278 41.4589 22.3269 40.8977 22.7341 40.6127Z" fill="#1B4B66"/>
<path d="M6.83523 68.2727V74.4602C6.83097 75.4659 6.36222 76.0028 5.52699 76.0028C4.75568 76.0028 4.21875 75.5426 4.21449 74.8182H2.90625C2.90625 76.2926 4.0142 77.1193 5.4929 77.1193C7.09517 77.1193 8.14347 76.1392 8.14773 74.4602V68.2727H6.83523ZM12.783 77.1321C14.2106 77.1321 15.2205 76.429 15.5103 75.3636L14.3043 75.1463C14.0742 75.7642 13.5202 76.0795 12.7958 76.0795C11.7049 76.0795 10.9719 75.3722 10.9379 74.1108H15.5913V73.6591C15.5913 71.294 14.1765 70.3693 12.6935 70.3693C10.8697 70.3693 9.66797 71.7585 9.66797 73.7699C9.66797 75.8026 10.8526 77.1321 12.783 77.1321ZM10.9421 73.1562C10.9933 72.2273 11.6665 71.4219 12.7021 71.4219C13.6907 71.4219 14.3384 72.1548 14.3427 73.1562H10.9421ZM18.4123 77H19.7077L21.0373 72.2741H21.1353L22.4648 77H23.7646L25.6864 70.4545H24.3697L23.0955 75.2401H23.0316L21.7532 70.4545H20.4364L19.1495 75.2614H19.0856L17.8029 70.4545H16.4862L18.4123 77ZM29.5174 77.1321C30.945 77.1321 31.9549 76.429 32.2447 75.3636L31.0387 75.1463C30.8086 75.7642 30.2546 76.0795 29.5302 76.0795C28.4393 76.0795 27.7063 75.3722 27.6722 74.1108H32.3256V73.6591C32.3256 71.294 30.9109 70.3693 29.4279 70.3693C27.604 70.3693 26.4023 71.7585 26.4023 73.7699C26.4023 75.8026 27.587 77.1321 29.5174 77.1321ZM27.6765 73.1562C27.7276 72.2273 28.4009 71.4219 29.4364 71.4219C30.4251 71.4219 31.0728 72.1548 31.0771 73.1562H27.6765ZM35.0135 68.2727H33.7393V77H35.0135V68.2727ZM38.0018 68.2727H36.7276V77H38.0018V68.2727ZM42.5369 77.1321C43.9645 77.1321 44.9744 76.429 45.2642 75.3636L44.0582 75.1463C43.8281 75.7642 43.2741 76.0795 42.5497 76.0795C41.4588 76.0795 40.7259 75.3722 40.6918 74.1108H45.3452V73.6591C45.3452 71.294 43.9304 70.3693 42.4474 70.3693C40.6236 70.3693 39.4219 71.7585 39.4219 73.7699C39.4219 75.8026 40.6065 77.1321 42.5369 77.1321ZM40.696 73.1562C40.7472 72.2273 41.4205 71.4219 42.456 71.4219C43.4446 71.4219 44.0923 72.1548 44.0966 73.1562H40.696ZM46.7589 77H48.033V73.0028C48.033 72.1463 48.6935 71.5284 49.5969 71.5284C49.8612 71.5284 50.1594 71.5753 50.2617 71.6051V70.3864C50.1339 70.3693 49.8825 70.3565 49.7205 70.3565C48.9535 70.3565 48.2972 70.7912 48.0586 71.4943H47.9904V70.4545H46.7589V77ZM52.369 79.4545C53.4215 79.4545 54.0863 78.9048 54.4656 77.8736L57.1715 70.4673L55.7951 70.4545L54.1374 75.5341H54.0692L52.4116 70.4545H51.0479L53.4428 77.0852L53.2852 77.5199C52.9613 78.3892 52.5053 78.4616 51.8065 78.2699L51.4996 79.3139C51.6531 79.3821 51.9854 79.4545 52.369 79.4545Z" fill="#171520"/>
<defs>
<linearGradient id="paint0_linear_33_10" x1="28.3533" y1="22.7764" x2="31.6947" y2="48.3594" gradientUnits="userSpaceOnUse">
<stop stop-color="white" stop-opacity="0"/>
<stop offset="1" stop-color="#17494D" stop-opacity="0.57"/>
</linearGradient>
</defs>
</svg>
