<svg width="60" height="82" viewBox="0 0 60 82" fill="none" xmlns="http://www.w3.org/2000/svg">
<mask id="mask0_33_7" style="mask-type:alpha" maskUnits="userSpaceOnUse" x="0" y="0" width="60" height="60">
<rect width="60" height="60" rx="8" fill="#FEE1C0"/>
</mask>
<g mask="url(#mask0_33_7)">
<rect width="60" height="60" rx="8" fill="#F4F4F4"/>
</g>
<mask id="mask1_33_7" style="mask-type:alpha" maskUnits="userSpaceOnUse" x="19" y="20" width="20" height="29">
<path d="M19.8002 31.1246C19.1676 25.4313 23.6241 20.4522 29.3525 20.4522C35.0808 20.4522 39.5374 25.4314 38.9048 31.1246L37.2275 46.2199C37.1108 47.27 36.2232 48.0645 35.1666 48.0645H23.5384C22.4817 48.0645 21.5941 47.27 21.4774 46.2199L19.8002 31.1246Z" fill="#17494D"/>
</mask>
<g mask="url(#mask1_33_7)">
<path fill-rule="evenodd" clip-rule="evenodd" d="M35.7029 46.0505L37.3801 30.9552C37.9118 26.1706 34.1665 21.9862 29.3525 21.9862C24.5384 21.9862 20.7932 26.1706 21.3248 30.9552L23.002 46.0505C23.0324 46.3238 23.2634 46.5305 23.5384 46.5305H35.1666C35.4415 46.5305 35.6725 46.3238 35.7029 46.0505ZM29.3525 20.4522C23.6241 20.4522 19.1676 25.4313 19.8002 31.1246L21.4774 46.2199C21.5941 47.27 22.4817 48.0645 23.5384 48.0645H35.1666C36.2232 48.0645 37.1108 47.2701 37.2275 46.2199L38.9048 31.1246C39.5374 25.4314 35.0808 20.4522 29.3525 20.4522Z" fill="#1B4B66"/>
<path fill-rule="evenodd" clip-rule="evenodd" d="M35.7379 12.1327L37.1275 14.5176C38.1911 16.3431 39.8184 19.1612 41.2438 21.6838C41.9563 22.9448 42.6201 24.1349 43.1383 25.0915C43.6443 26.0254 44.0419 26.7912 44.1919 27.1689C44.2604 27.3414 44.2819 27.5179 44.2913 27.6406C44.3019 27.778 44.3024 27.928 44.2971 28.0815C44.2865 28.3893 44.2508 28.7679 44.197 29.1965C44.089 30.0566 43.9002 31.1813 43.6566 32.4694C43.1688 35.0491 42.4519 38.3332 41.6918 41.5707C40.9317 44.8086 40.1257 48.011 39.4585 50.428C39.1254 51.6345 38.8239 52.6564 38.5778 53.3925C38.4557 53.7577 38.3411 54.071 38.238 54.3069C38.1876 54.4223 38.1295 54.5433 38.064 54.6498C38.0316 54.7027 37.985 54.7722 37.9234 54.8413C37.8732 54.8977 37.7507 55.0259 37.5525 55.1046C37.3987 55.1657 37.2495 55.1792 37.1794 55.1845C37.0885 55.1913 36.9924 55.1919 36.8997 55.1899C36.7132 55.1857 36.4844 55.1691 36.2289 55.1444C35.7149 55.0948 35.0357 55.007 34.2534 54.8945C32.6856 54.6691 30.6602 54.3381 28.6201 53.9945C27.3918 53.7877 26.1518 53.5752 25.001 53.3779C24.242 53.2479 23.5218 53.1244 22.8692 53.0136C21.1956 52.7295 20.0127 52.5369 19.6771 52.508C19.2775 52.4737 18.915 52.2545 18.6616 52.0764C18.3747 51.8748 18.0667 51.6072 17.7531 51.3061C17.1235 50.7014 16.3997 49.8916 15.669 49.0184C14.204 47.2676 12.6535 45.1917 11.6719 43.8135L11.2539 43.2265L11.7505 42.7044C11.9114 42.5352 12.0779 42.3563 12.252 42.1693C13.267 41.0785 14.5409 39.7096 16.4826 38.364C18.7663 36.7814 21.9488 35.2417 26.7549 34.0853C31.05 33.0519 33.1024 29.957 34.1612 26.1985C34.98 23.2919 35.1684 20.1329 35.3334 17.3659C35.3855 16.4923 35.4353 15.6579 35.5018 14.8828L35.7379 12.1327ZM37.0558 17.8789C36.8939 20.5653 36.6629 23.7632 35.8434 26.6724C34.6877 30.7749 32.3013 34.5483 27.1637 35.7845C22.537 36.8977 19.5599 38.3577 17.4781 39.8004C15.7025 41.031 14.5599 42.257 13.5469 43.344C13.5356 43.3561 13.5243 43.3682 13.513 43.3803C14.4678 44.6961 15.7743 46.4208 17.0094 47.8968C17.7245 48.7515 18.4013 49.5054 18.9637 50.0456C19.2461 50.3168 19.482 50.5169 19.6664 50.6464C19.7907 50.7338 19.8558 50.7632 19.8715 50.771C20.3397 50.8175 21.5926 51.0242 23.1618 51.2906C23.8204 51.4024 24.5425 51.5262 25.3019 51.6563C26.4495 51.853 27.6823 52.0643 28.9103 52.2711C30.949 52.6145 32.9567 52.9424 34.5021 53.1647C35.2763 53.276 35.9236 53.3592 36.3968 53.4048C36.515 53.4163 36.619 53.425 36.7088 53.4312C36.7685 53.2782 36.8392 53.0808 36.9203 52.8383C37.1516 52.1463 37.4435 51.1593 37.7738 49.9629C38.4333 47.5741 39.2336 44.3948 39.9904 41.1713C40.7473 37.9473 41.458 34.6901 41.9394 32.1446C42.1804 30.8701 42.3616 29.7862 42.4629 28.9788C42.5138 28.5736 42.5425 28.2538 42.5504 28.0216C42.5544 27.9052 42.5527 27.8249 42.5488 27.7746C42.5486 27.7718 42.5484 27.7691 42.5481 27.7667C42.426 27.4789 42.0959 26.8362 41.6017 25.9241C41.0906 24.9808 40.4326 23.8009 39.7222 22.5436C38.8508 21.0015 37.9032 19.3476 37.0558 17.8789ZM42.5449 27.7392C42.5449 27.7392 42.5452 27.7403 42.5455 27.7427C42.5451 27.7405 42.5449 27.7393 42.5449 27.7392ZM37.0488 53.4417C37.0483 53.4417 37.0478 53.4418 37.0473 53.4418C37.0596 53.4401 37.0613 53.4407 37.0488 53.4417Z" fill="#1B4B66"/>
<path fill-rule="evenodd" clip-rule="evenodd" d="M34.691 35.136C35.1125 35.1781 35.42 35.554 35.3778 35.9755L34.6108 41.8979C34.5687 42.3194 34.1928 42.627 33.7713 42.5848C33.3498 42.5427 33.0423 42.1668 33.0844 41.7453L33.8514 35.8229C33.8936 35.4014 34.2695 35.0938 34.691 35.136Z" fill="#1B4B66"/>
</g>
<path fill-rule="evenodd" clip-rule="evenodd" d="M27.39 18.1511C27.0599 18.1511 26.7668 18.3624 26.6624 18.6756L25.916 20.9148C26.0116 20.8939 26.1105 20.8728 26.2121 20.8517C27.1439 20.6581 28.3586 20.4522 29.3524 20.4522C30.3462 20.4522 31.5609 20.6581 32.4927 20.8517C32.5943 20.8728 32.6932 20.8939 32.7888 20.9148L32.0424 18.6756C31.938 18.3624 31.6449 18.1511 31.3148 18.1511H27.39ZM33.7504 22.7256L33.7444 22.7239L33.7229 22.7181C33.7035 22.7128 33.6742 22.705 33.636 22.6949C33.5595 22.6748 33.4472 22.6457 33.3065 22.6107C33.0246 22.5406 32.6301 22.4471 32.1806 22.3537C31.2669 22.1638 30.1806 21.9862 29.3524 21.9862C28.5242 21.9862 27.4379 22.1638 26.5242 22.3537C26.0747 22.4471 25.6802 22.5406 25.3983 22.6107C25.2576 22.6457 25.1453 22.6748 25.0688 22.6949C25.0306 22.705 25.0013 22.7128 24.9819 22.7181L24.9604 22.7239L24.9544 22.7256L23.5679 23.1081L25.2071 18.1905C25.5203 17.2509 26.3996 16.6171 27.39 16.6171H31.3148C32.3052 16.6171 33.1845 17.2509 33.4977 18.1905L35.1369 23.1081L33.7504 22.7256Z" fill="#1B4B66"/>
<path d="M27.8184 14.3161V18.1511H30.8864V14.3161C30.8864 13.4689 30.1996 12.7821 29.3524 12.7821C28.5052 12.7821 27.8184 13.4689 27.8184 14.3161Z" fill="#1B4B66"/>
<path d="M30.4876 13.3184L30.8867 14.3161L22.4589 14.6402C21.6554 14.6712 21.0203 13.9666 21.134 13.1707C21.2277 12.5149 21.8035 12.037 22.4653 12.0658L29.13 12.3555C29.7324 12.3817 30.2637 12.7585 30.4876 13.3184Z" fill="#1B4B66"/>
<path d="M34.2313 44.1226C34.2313 44.5463 33.8879 44.8897 33.4643 44.8897C33.0407 44.8897 32.6973 44.5463 32.6973 44.1226C32.6973 43.699 33.0407 43.3556 33.4643 43.3556C33.8879 43.3556 34.2313 43.699 34.2313 44.1226Z" fill="#1B4B66"/>
<mask id="mask2_33_7" style="mask-type:alpha" maskUnits="userSpaceOnUse" x="19" y="20" width="20" height="29">
<path d="M19.8002 31.1246C19.1676 25.4313 23.6241 20.4522 29.3525 20.4522C35.0808 20.4522 39.5374 25.4314 38.9048 31.1246L37.2275 46.2199C37.1108 47.27 36.2232 48.0645 35.1666 48.0645H23.5384C22.4817 48.0645 21.5941 47.27 21.4774 46.2199L19.8002 31.1246Z" fill="#17494D"/>
</mask>
<g mask="url(#mask2_33_7)">
<path d="M28.5 34L20.5 37L21.5 41L23 47.5H34.5L36.5 46.5L37.5 38.5L38.5 31L37 25.5L35.5 25L33.5 29.5L31.5 32.5L28.5 34Z" fill="url(#paint0_linear_33_7)"/>
<path fill-rule="evenodd" clip-rule="evenodd" d="M35.7029 46.0505L37.3801 30.9552C37.9118 26.1706 34.1665 21.9862 29.3525 21.9862C24.5384 21.9862 20.7932 26.1706 21.3248 30.9552L23.002 46.0505C23.0324 46.3238 23.2634 46.5305 23.5384 46.5305H35.1666C35.4415 46.5305 35.6725 46.3238 35.7029 46.0505ZM29.3525 20.4522C23.6241 20.4522 19.1676 25.4313 19.8002 31.1246L21.4774 46.2199C21.5941 47.27 22.4817 48.0645 23.5384 48.0645H35.1666C36.2232 48.0645 37.1108 47.2701 37.2275 46.2199L38.9048 31.1246C39.5374 25.4314 35.0808 20.4522 29.3525 20.4522Z" fill="#1B4B66"/>
<path fill-rule="evenodd" clip-rule="evenodd" d="M35.7379 12.1327L37.1275 14.5176C38.1911 16.3431 39.8184 19.1612 41.2438 21.6838C41.9563 22.9448 42.6201 24.1349 43.1383 25.0915C43.6443 26.0254 44.0419 26.7912 44.1919 27.1689C44.2604 27.3414 44.2819 27.5179 44.2913 27.6406C44.3019 27.778 44.3024 27.928 44.2971 28.0815C44.2865 28.3893 44.2508 28.7679 44.197 29.1965C44.089 30.0566 43.9002 31.1813 43.6566 32.4694C43.1688 35.0491 42.4519 38.3332 41.6918 41.5707C40.9317 44.8086 40.1257 48.011 39.4585 50.428C39.1254 51.6345 38.8239 52.6564 38.5778 53.3925C38.4557 53.7577 38.3411 54.071 38.238 54.3069C38.1876 54.4223 38.1295 54.5433 38.064 54.6498C38.0316 54.7027 37.985 54.7722 37.9234 54.8413C37.8732 54.8977 37.7507 55.0259 37.5525 55.1046C37.3987 55.1657 37.2495 55.1792 37.1794 55.1845C37.0885 55.1913 36.9924 55.1919 36.8997 55.1899C36.7132 55.1857 36.4844 55.1691 36.2289 55.1444C35.7149 55.0948 35.0357 55.007 34.2534 54.8945C32.6856 54.6691 30.6602 54.3381 28.6201 53.9945C27.3918 53.7877 26.1518 53.5752 25.001 53.3779C24.242 53.2479 23.5218 53.1244 22.8692 53.0136C21.1956 52.7295 20.0127 52.5369 19.6771 52.508C19.2775 52.4737 18.915 52.2545 18.6616 52.0764C18.3747 51.8748 18.0667 51.6072 17.7531 51.3061C17.1235 50.7014 16.3997 49.8916 15.669 49.0184C14.204 47.2676 12.6535 45.1917 11.6719 43.8135L11.2539 43.2265L11.7505 42.7044C11.9114 42.5352 12.0779 42.3563 12.252 42.1693C13.267 41.0785 14.5409 39.7096 16.4826 38.364C18.7663 36.7814 21.9488 35.2417 26.7549 34.0853C31.05 33.0519 33.1024 29.957 34.1612 26.1985C34.98 23.2919 35.1684 20.1329 35.3334 17.3659C35.3855 16.4923 35.4353 15.6579 35.5018 14.8828L35.7379 12.1327ZM37.0558 17.8789C36.8939 20.5653 36.6629 23.7632 35.8434 26.6724C34.6877 30.7749 32.3013 34.5483 27.1637 35.7845C22.537 36.8977 19.5599 38.3577 17.4781 39.8004C15.7025 41.031 14.5599 42.257 13.5469 43.344C13.5356 43.3561 13.5243 43.3682 13.513 43.3803C14.4678 44.6961 15.7743 46.4208 17.0094 47.8968C17.7245 48.7515 18.4013 49.5054 18.9637 50.0456C19.2461 50.3168 19.482 50.5169 19.6664 50.6464C19.7907 50.7338 19.8558 50.7632 19.8715 50.771C20.3397 50.8175 21.5926 51.0242 23.1618 51.2906C23.8204 51.4024 24.5425 51.5262 25.3019 51.6563C26.4495 51.853 27.6823 52.0643 28.9103 52.2711C30.949 52.6145 32.9567 52.9424 34.5021 53.1647C35.2763 53.276 35.9236 53.3592 36.3968 53.4048C36.515 53.4163 36.619 53.425 36.7088 53.4312C36.7685 53.2782 36.8392 53.0808 36.9203 52.8383C37.1516 52.1463 37.4435 51.1593 37.7738 49.9629C38.4333 47.5741 39.2336 44.3948 39.9904 41.1713C40.7473 37.9473 41.458 34.6901 41.9394 32.1446C42.1804 30.8701 42.3616 29.7862 42.4629 28.9788C42.5138 28.5736 42.5425 28.2538 42.5504 28.0216C42.5544 27.9052 42.5527 27.8249 42.5488 27.7746C42.5486 27.7718 42.5484 27.7691 42.5481 27.7667C42.426 27.4789 42.0959 26.8362 41.6017 25.9241C41.0906 24.9808 40.4326 23.8009 39.7222 22.5436C38.8508 21.0015 37.9032 19.3476 37.0558 17.8789ZM42.5449 27.7392C42.5449 27.7392 42.5452 27.7403 42.5455 27.7427C42.5451 27.7405 42.5449 27.7393 42.5449 27.7392ZM37.0488 53.4417C37.0483 53.4417 37.0478 53.4418 37.0473 53.4418C37.0596 53.4401 37.0613 53.4407 37.0488 53.4417Z" fill="#1B4B66"/>
<path fill-rule="evenodd" clip-rule="evenodd" d="M34.691 35.136C35.1125 35.1781 35.42 35.554 35.3778 35.9755L34.6108 41.8979C34.5687 42.3194 34.1928 42.627 33.7713 42.5848C33.3498 42.5427 33.0423 42.1668 33.0844 41.7453L33.8514 35.8229C33.8936 35.4014 34.2695 35.0938 34.691 35.136Z" fill="#1B4B66"/>
</g>
<path fill-rule="evenodd" clip-rule="evenodd" d="M27.39 18.1511C27.0599 18.1511 26.7668 18.3624 26.6624 18.6756L25.916 20.9148C26.0116 20.8939 26.1105 20.8728 26.2121 20.8517C27.1439 20.6581 28.3586 20.4522 29.3524 20.4522C30.3462 20.4522 31.5609 20.6581 32.4927 20.8517C32.5943 20.8728 32.6932 20.8939 32.7888 20.9148L32.0424 18.6756C31.938 18.3624 31.6449 18.1511 31.3148 18.1511H27.39ZM33.7504 22.7256L33.7444 22.7239L33.7229 22.7181C33.7035 22.7128 33.6742 22.705 33.636 22.6949C33.5595 22.6748 33.4472 22.6457 33.3065 22.6107C33.0246 22.5406 32.6301 22.4471 32.1806 22.3537C31.2669 22.1638 30.1806 21.9862 29.3524 21.9862C28.5242 21.9862 27.4379 22.1638 26.5242 22.3537C26.0747 22.4471 25.6802 22.5406 25.3983 22.6107C25.2576 22.6457 25.1453 22.6748 25.0688 22.6949C25.0306 22.705 25.0013 22.7128 24.9819 22.7181L24.9604 22.7239L24.9544 22.7256L23.5679 23.1081L25.2071 18.1905C25.5203 17.2509 26.3996 16.6171 27.39 16.6171H31.3148C32.3052 16.6171 33.1845 17.2509 33.4977 18.1905L35.1369 23.1081L33.7504 22.7256Z" fill="#1B4B66"/>
<path d="M27.8184 14.3161V18.1511H30.8864V14.3161C30.8864 13.4689 30.1996 12.7821 29.3524 12.7821C28.5052 12.7821 27.8184 13.4689 27.8184 14.3161Z" fill="#1B4B66"/>
<path d="M30.4876 13.3184L30.8867 14.3161L22.4589 14.6402C21.6554 14.6712 21.0203 13.9666 21.134 13.1707C21.2277 12.5149 21.8035 12.037 22.4653 12.0658L29.13 12.3555C29.7324 12.3817 30.2637 12.7585 30.4876 13.3184Z" fill="#1B4B66"/>
<path d="M34.2313 44.1226C34.2313 44.5463 33.8879 44.8897 33.4643 44.8897C33.0407 44.8897 32.6973 44.5463 32.6973 44.1226C32.6973 43.699 33.0407 43.3556 33.4643 43.3556C33.8879 43.3556 34.2313 43.699 34.2313 44.1226Z" fill="#1B4B66"/>
<path d="M10.9102 70.5653H12.18C12.1417 69.1676 10.9059 68.1534 9.13317 68.1534C7.38175 68.1534 6.03942 69.1548 6.03942 70.6591C6.03942 71.8736 6.90874 72.5852 8.31072 72.9645L9.34197 73.2457C10.2752 73.4929 10.9954 73.7997 10.9954 74.5753C10.9954 75.4276 10.1815 75.9901 9.06072 75.9901C8.04652 75.9901 7.20277 75.5384 7.12607 74.5881H5.80504C5.89027 76.169 7.11328 77.1449 9.06925 77.1449C11.119 77.1449 12.2994 76.0668 12.2994 74.5881C12.2994 73.0156 10.8974 72.4062 9.78942 72.1335L8.93715 71.9119C8.25533 71.7372 7.34766 71.4176 7.35192 70.5824C7.35192 69.8409 8.02947 69.2912 9.10334 69.2912C10.1048 69.2912 10.8164 69.7599 10.9102 70.5653ZM13.7706 77H15.0447V74.6776L15.6797 74.0426L17.9041 77H19.468L16.6385 73.2628L19.2891 70.4545H17.7635L15.1555 73.2244H15.0447V68.2727H13.7706V77ZM20.4503 77H21.7244V70.4545H20.4503V77ZM21.0938 69.4446C21.5327 69.4446 21.8991 69.1037 21.8991 68.6861C21.8991 68.2685 21.5327 67.9233 21.0938 67.9233C20.6506 67.9233 20.2884 68.2685 20.2884 68.6861C20.2884 69.1037 20.6506 69.4446 21.0938 69.4446ZM24.7127 73.1136C24.7127 72.0696 25.3519 71.473 26.2383 71.473C27.1033 71.473 27.6275 72.0398 27.6275 72.9901V77H28.9016V72.8366C28.9016 71.2173 28.011 70.3693 26.6729 70.3693C25.6886 70.3693 25.0451 70.8253 24.7425 71.5199H24.6616V70.4545H23.4386V77H24.7127V73.1136ZM33.3675 77.1321C34.9144 77.1321 35.9158 76.2031 36.0565 74.929H34.8164C34.6545 75.6364 34.1048 76.054 33.3761 76.054C32.2979 76.054 31.6033 75.1548 31.6033 73.7273C31.6033 72.3253 32.3107 71.4432 33.3761 71.4432C34.1857 71.4432 34.68 71.9545 34.8164 72.5682H36.0565C35.9201 71.2472 34.842 70.3693 33.3548 70.3693C31.5096 70.3693 30.3164 71.7585 30.3164 73.7571C30.3164 75.7301 31.467 77.1321 33.3675 77.1321ZM39.3239 77.1449C40.4062 77.1449 41.0156 76.5952 41.2585 76.1051H41.3097V77H42.554V72.6534C42.554 70.7486 41.054 70.3693 40.0142 70.3693C38.8295 70.3693 37.7386 70.8466 37.3125 72.0398L38.5099 72.3125C38.6974 71.848 39.1747 71.4006 40.0312 71.4006C40.8537 71.4006 41.2756 71.831 41.2756 72.5724V72.6023C41.2756 73.0668 40.7983 73.0582 39.6222 73.1946C38.3821 73.3395 37.1122 73.6634 37.1122 75.1506C37.1122 76.4375 38.0795 77.1449 39.3239 77.1449ZM39.6009 76.1222C38.8807 76.1222 38.3608 75.7983 38.3608 75.1676C38.3608 74.4858 38.9659 74.2429 39.7031 74.1449C40.1165 74.0895 41.0966 73.9787 41.2798 73.7955V74.6392C41.2798 75.4148 40.6619 76.1222 39.6009 76.1222ZM44.2511 77H45.5252V73.0028C45.5252 72.1463 46.1857 71.5284 47.0891 71.5284C47.3533 71.5284 47.6516 71.5753 47.7539 71.6051V70.3864C47.6261 70.3693 47.3746 70.3565 47.2127 70.3565C46.4457 70.3565 45.7894 70.7912 45.5508 71.4943H45.4826V70.4545H44.2511V77ZM51.4432 77.1321C52.8707 77.1321 53.8807 76.429 54.1705 75.3636L52.9645 75.1463C52.7344 75.7642 52.1804 76.0795 51.456 76.0795C50.3651 76.0795 49.6321 75.3722 49.598 74.1108H54.2514V73.6591C54.2514 71.294 52.8366 70.3693 51.3537 70.3693C49.5298 70.3693 48.3281 71.7585 48.3281 73.7699C48.3281 75.8026 49.5128 77.1321 51.4432 77.1321ZM49.6023 73.1562C49.6534 72.2273 50.3267 71.4219 51.3622 71.4219C52.3509 71.4219 52.9986 72.1548 53.0028 73.1562H49.6023Z" fill="#171520"/>
<defs>
<linearGradient id="paint0_linear_33_7" x1="29" y1="22.5" x2="33" y2="47" gradientUnits="userSpaceOnUse">
<stop stop-color="white" stop-opacity="0"/>
<stop offset="1" stop-color="#17494D" stop-opacity="0.57"/>
</linearGradient>
</defs>
</svg>
