<svg width="60" height="82" viewBox="0 0 60 82" fill="none" xmlns="http://www.w3.org/2000/svg">
<mask id="mask0_33_2" style="mask-type:alpha" maskUnits="userSpaceOnUse" x="0" y="0" width="60" height="60">
<rect width="60" height="60" rx="8" fill="#FEE1C0"/>
</mask>
<g mask="url(#mask0_33_2)">
<rect width="60" height="60" rx="8" fill="#F4F4F4"/>
</g>
<path fill-rule="evenodd" clip-rule="evenodd" d="M26.2415 15.5125C26.1859 15.5125 26.132 15.532 26.0893 15.5677C26.0466 15.6034 26.0178 15.6529 26.0079 15.7076L25.0731 15.5382L26.0079 15.7076L24.9972 21.2822C24.9036 21.7984 24.4093 22.1411 23.893 22.0475C23.3767 21.9539 23.0341 21.4595 23.1277 20.9432L24.1383 15.3687C24.2277 14.876 24.4871 14.4302 24.8715 14.1093C25.2559 13.7883 25.7408 13.6125 26.2415 13.6125H33.7584C34.2592 13.6125 34.744 13.7883 35.1284 14.1093C35.5128 14.4302 35.7723 14.876 35.8616 15.3687L36.8722 20.9433C36.9658 21.4595 36.6232 21.9539 36.1069 22.0475C35.5907 22.1411 35.0963 21.7985 35.0027 21.2822L33.9921 15.7076L34.9268 15.5382L33.9921 15.7076C33.9822 15.6529 33.9533 15.6034 33.9106 15.5677C33.8679 15.532 33.814 15.5125 33.7584 15.5125H26.2415Z" fill="#1B4B66"/>
<path fill-rule="evenodd" clip-rule="evenodd" d="M33.7585 45.1002C33.8141 45.1002 33.868 45.0807 33.9107 45.045C33.9534 45.0093 33.9822 44.9598 33.9921 44.9051L34.9269 45.0745L33.9921 44.9051L35.0028 39.3305C35.0964 38.8143 35.5907 38.4716 36.107 38.5652C36.6233 38.6588 36.9659 39.1532 36.8723 39.6695L35.8617 45.244C35.7723 45.7367 35.5129 46.1825 35.1285 46.5034C34.7441 46.8244 34.2592 47.0002 33.7585 47.0002H26.2416C25.7408 47.0002 25.256 46.8244 24.8716 46.5034C24.4872 46.1825 24.2277 45.7367 24.1384 45.244L23.1278 39.6694C23.0342 39.1532 23.3768 38.6588 23.8931 38.5652C24.4093 38.4716 24.9037 38.8142 24.9973 39.3305L26.0079 44.9051L25.0732 45.0745L26.0079 44.9051C26.0178 44.9598 26.0467 45.0093 26.0894 45.045C26.1321 45.0807 26.186 45.1002 26.2416 45.1002H33.7585Z" fill="#1B4B66"/>
<path fill-rule="evenodd" clip-rule="evenodd" d="M29.9998 20.2625C24.6219 20.2625 20.2623 24.6221 20.2623 30C20.2623 35.3779 24.6219 39.7375 29.9998 39.7375C35.3777 39.7375 39.7373 35.3779 39.7373 30C39.7373 24.6221 35.3777 20.2625 29.9998 20.2625ZM18.3623 30C18.3623 23.5728 23.5726 18.3625 29.9998 18.3625C36.427 18.3625 41.6373 23.5728 41.6373 30C41.6373 36.4272 36.427 41.6375 29.9998 41.6375C23.5726 41.6375 18.3623 36.4272 18.3623 30Z" fill="#1B4B66"/>
<path fill-rule="evenodd" clip-rule="evenodd" d="M29.9998 23.1125C30.5245 23.1125 30.9498 23.5378 30.9498 24.0625V29.05H35.9373C36.462 29.05 36.8873 29.4753 36.8873 30C36.8873 30.5247 36.462 30.95 35.9373 30.95H29.9998C29.4751 30.95 29.0498 30.5247 29.0498 30V24.0625C29.0498 23.5378 29.4751 23.1125 29.9998 23.1125Z" fill="#1B4B66"/>
<path fill-rule="evenodd" clip-rule="evenodd" d="M26.2415 15.5125C26.1859 15.5125 26.132 15.532 26.0893 15.5677C26.0466 15.6034 26.0178 15.6529 26.0079 15.7076L25.0731 15.5382L26.0079 15.7076L24.9972 21.2822C24.9036 21.7984 24.4093 22.1411 23.893 22.0475C23.3767 21.9539 23.0341 21.4595 23.1277 20.9432L24.1383 15.3687C24.2277 14.876 24.4871 14.4302 24.8715 14.1093C25.2559 13.7883 25.7408 13.6125 26.2415 13.6125H33.7584C34.2592 13.6125 34.744 13.7883 35.1284 14.1093C35.5128 14.4302 35.7723 14.876 35.8616 15.3687L36.8722 20.9433C36.9658 21.4595 36.6232 21.9539 36.1069 22.0475C35.5907 22.1411 35.0963 21.7985 35.0027 21.2822L33.9921 15.7076L34.9268 15.5382L33.9921 15.7076C33.9822 15.6529 33.9533 15.6034 33.9106 15.5677C33.8679 15.532 33.814 15.5125 33.7584 15.5125H26.2415Z" fill="#1B4B66"/>
<path fill-rule="evenodd" clip-rule="evenodd" d="M33.7585 45.1002C33.8141 45.1002 33.868 45.0807 33.9107 45.045C33.9534 45.0093 33.9822 44.9598 33.9921 44.9051L34.9269 45.0745L33.9921 44.9051L35.0028 39.3305C35.0964 38.8143 35.5907 38.4716 36.107 38.5652C36.6233 38.6588 36.9659 39.1532 36.8723 39.6695L35.8617 45.244C35.7723 45.7367 35.5129 46.1825 35.1285 46.5034C34.7441 46.8244 34.2592 47.0002 33.7585 47.0002H26.2416C25.7408 47.0002 25.256 46.8244 24.8716 46.5034C24.4872 46.1825 24.2277 45.7367 24.1384 45.244L23.1278 39.6694C23.0342 39.1532 23.3768 38.6588 23.8931 38.5652C24.4093 38.4716 24.9037 38.8142 24.9973 39.3305L26.0079 44.9051L25.0732 45.0745L26.0079 44.9051C26.0178 44.9598 26.0467 45.0093 26.0894 45.045C26.1321 45.0807 26.186 45.1002 26.2416 45.1002H33.7585Z" fill="#1B4B66"/>
<path fill-rule="evenodd" clip-rule="evenodd" d="M18.3623 30C18.3623 23.5728 23.5726 18.3625 29.9998 18.3625C36.427 18.3625 41.6373 23.5728 41.6373 30C41.6373 36.4272 36.427 41.6375 29.9998 41.6375C23.5726 41.6375 18.3623 36.4272 18.3623 30Z" fill="url(#paint0_linear_33_2)"/>
<path fill-rule="evenodd" clip-rule="evenodd" d="M29.9998 20.2625C24.6219 20.2625 20.2623 24.6221 20.2623 30C20.2623 35.3779 24.6219 39.7375 29.9998 39.7375C35.3777 39.7375 39.7373 35.3779 39.7373 30C39.7373 24.6221 35.3777 20.2625 29.9998 20.2625ZM18.3623 30C18.3623 23.5728 23.5726 18.3625 29.9998 18.3625C36.427 18.3625 41.6373 23.5728 41.6373 30C41.6373 36.4272 36.427 41.6375 29.9998 41.6375C23.5726 41.6375 18.3623 36.4272 18.3623 30Z" fill="#1B4B66"/>
<path fill-rule="evenodd" clip-rule="evenodd" d="M29.9998 23.1125C30.5245 23.1125 30.9498 23.5378 30.9498 24.0625V29.05H35.9373C36.462 29.05 36.8873 29.4753 36.8873 30C36.8873 30.5247 36.462 30.95 35.9373 30.95H29.9998C29.4751 30.95 29.0498 30.5247 29.0498 30V24.0625C29.0498 23.5378 29.4751 23.1125 29.9998 23.1125Z" fill="#1B4B66"/>
<path d="M7.75941 77H9.08896L10.9256 70.4631H10.9938L12.8304 77H14.1557L16.5804 68.2727H15.1912L13.4952 75.0355H13.4142L11.6458 68.2727H10.2736L8.50515 75.0312H8.42418L6.7239 68.2727H5.33896L7.75941 77ZM18.9391 77.1449C20.0215 77.1449 20.6309 76.5952 20.8738 76.1051H20.9249V77H22.1692V72.6534C22.1692 70.7486 20.6692 70.3693 19.6294 70.3693C18.4448 70.3693 17.3539 70.8466 16.9277 72.0398L18.1252 72.3125C18.3127 71.848 18.79 71.4006 19.6465 71.4006C20.4689 71.4006 20.8908 71.831 20.8908 72.5724V72.6023C20.8908 73.0668 20.4135 73.0582 19.2374 73.1946C17.9973 73.3395 16.7275 73.6634 16.7275 75.1506C16.7275 76.4375 17.6948 77.1449 18.9391 77.1449ZM19.2161 76.1222C18.4959 76.1222 17.976 75.7983 17.976 75.1676C17.976 74.4858 18.5811 74.2429 19.3184 74.1449C19.7317 74.0895 20.7118 73.9787 20.8951 73.7955V74.6392C20.8951 75.4148 20.2772 76.1222 19.2161 76.1222ZM26.9217 70.4545H25.5794V68.8864H24.3052V70.4545H23.3464V71.4773H24.3052V75.3423C24.301 76.5312 25.2086 77.1065 26.2143 77.0852C26.6191 77.081 26.8919 77.0043 27.041 76.9489L26.8109 75.8963C26.7257 75.9134 26.568 75.9517 26.3635 75.9517C25.9501 75.9517 25.5794 75.8153 25.5794 75.0781V71.4773H26.9217V70.4545ZM31.0179 77.1321C32.5648 77.1321 33.5662 76.2031 33.7069 74.929H32.4668C32.3049 75.6364 31.7551 76.054 31.0265 76.054C29.9483 76.054 29.2537 75.1548 29.2537 73.7273C29.2537 72.3253 29.9611 71.4432 31.0265 71.4432C31.8361 71.4432 32.3304 71.9545 32.4668 72.5682H33.7069C33.5705 71.2472 32.4924 70.3693 31.0051 70.3693C29.16 70.3693 27.9668 71.7585 27.9668 73.7571C27.9668 75.7301 29.1174 77.1321 31.0179 77.1321ZM36.3436 73.1136C36.3436 72.0696 37.0041 71.473 37.9118 71.473C38.7896 71.473 39.3137 72.0312 39.3137 72.9901V77H40.5879V72.8366C40.5879 71.2045 39.693 70.3693 38.3464 70.3693C37.3279 70.3693 36.7143 70.8125 36.4075 71.5199H36.3265V68.2727H35.0694V77H36.3436V73.1136ZM45.1092 77.1321C46.5368 77.1321 47.5467 76.429 47.8365 75.3636L46.6305 75.1463C46.4004 75.7642 45.8464 76.0795 45.122 76.0795C44.0311 76.0795 43.2981 75.3722 43.264 74.1108H47.9174V73.6591C47.9174 71.294 46.5027 70.3693 45.0197 70.3693C43.1958 70.3693 41.9941 71.7585 41.9941 73.7699C41.9941 75.8026 43.1788 77.1321 45.1092 77.1321ZM43.2683 73.1562C43.3194 72.2273 43.9927 71.4219 45.0282 71.4219C46.0169 71.4219 46.6646 72.1548 46.6689 73.1562H43.2683ZM54.236 72.0526C53.9718 71.0341 53.1749 70.3693 51.7601 70.3693C50.2814 70.3693 49.2331 71.1491 49.2331 72.3082C49.2331 73.2372 49.7956 73.8551 51.0229 74.1278L52.1309 74.3707C52.7615 74.5114 53.0556 74.7926 53.0556 75.2017C53.0556 75.7088 52.5144 76.1051 51.6792 76.1051C50.9164 76.1051 50.4263 75.777 50.2729 75.1335L49.0414 75.321C49.2544 76.4801 50.2175 77.1321 51.6877 77.1321C53.2686 77.1321 54.3638 76.2926 54.3638 75.108C54.3638 74.1832 53.7757 73.6122 52.574 73.3352L51.5343 73.0966C50.8141 72.9261 50.503 72.6832 50.5073 72.2401C50.503 71.7372 51.0485 71.3793 51.7729 71.3793C52.5655 71.3793 52.932 71.8182 53.0811 72.2571L54.236 72.0526Z" fill="#171520"/>
<defs>
<linearGradient id="paint0_linear_33_2" x1="29.3533" y1="15.7764" x2="32.6947" y2="41.3594" gradientUnits="userSpaceOnUse">
<stop stop-color="white" stop-opacity="0"/>
<stop offset="1" stop-color="#17494D" stop-opacity="0.57"/>
</linearGradient>
</defs>
</svg>
