<svg width="49" height="49" viewBox="0 0 49 49" fill="none" xmlns="http://www.w3.org/2000/svg">
<path fill-rule="evenodd" clip-rule="evenodd" d="M28.0169 15.2669C28.7829 14.5009 30.0249 14.5009 30.7909 15.2669L39.6178 24.0937C39.9857 24.4616 40.1924 24.9605 40.1924 25.4808C40.1924 26.001 39.9857 26.4999 39.6178 26.8678L30.7909 35.6947C30.0249 36.4607 28.7829 36.4607 28.0169 35.6947C27.2508 34.9287 27.2508 33.6867 28.0169 32.9207L33.4952 27.4423H10.7693C9.68595 27.4423 8.80774 26.5641 8.80774 25.4808C8.80774 24.3974 9.68595 23.5192 10.7693 23.5192H33.4952L28.0169 18.0409C27.2509 17.2749 27.2508 16.0329 28.0169 15.2669Z" fill="#A53F64"/>
</svg>
