<svg width="24" height="24" viewBox="0 0 24 24" fill="none" xmlns="http://www.w3.org/2000/svg">
<rect width="24" height="24" fill="#1B4B66"/>
<path d="M3.25 4.5C3.25 4.16848 3.3817 3.85054 3.61612 3.61612C3.85054 3.3817 4.16848 3.25 4.5 3.25H7C7.33152 3.25 7.64946 3.3817 7.88388 3.61612C8.1183 3.85054 8.25 4.16848 8.25 4.5V7C8.25 7.33152 8.1183 7.64946 7.88388 7.88388C7.64946 8.1183 7.33152 8.25 7 8.25H4.5C4.16848 8.25 3.85054 8.1183 3.61612 7.88388C3.3817 7.64946 3.25 7.33152 3.25 7V4.5ZM9.5 4.5C9.5 4.16848 9.6317 3.85054 9.86612 3.61612C10.1005 3.3817 10.4185 3.25 10.75 3.25H13.25C13.5815 3.25 13.8995 3.3817 14.1339 3.61612C14.3683 3.85054 14.5 4.16848 14.5 4.5V7C14.5 7.33152 14.3683 7.64946 14.1339 7.88388C13.8995 8.1183 13.5815 8.25 13.25 8.25H10.75C10.4185 8.25 10.1005 8.1183 9.86612 7.88388C9.6317 7.64946 9.5 7.33152 9.5 7V4.5ZM15.75 4.5C15.75 4.16848 15.8817 3.85054 16.1161 3.61612C16.3505 3.3817 16.6685 3.25 17 3.25H19.5C19.8315 3.25 20.1495 3.3817 20.3839 3.61612C20.6183 3.85054 20.75 4.16848 20.75 4.5V7C20.75 7.33152 20.6183 7.64946 20.3839 7.88388C20.1495 8.1183 19.8315 8.25 19.5 8.25H17C16.6685 8.25 16.3505 8.1183 16.1161 7.88388C15.8817 7.64946 15.75 7.33152 15.75 7V4.5ZM3.25 10.75C3.25 10.4185 3.3817 10.1005 3.61612 9.86612C3.85054 9.6317 4.16848 9.5 4.5 9.5H7C7.33152 9.5 7.64946 9.6317 7.88388 9.86612C8.1183 10.1005 8.25 10.4185 8.25 10.75V13.25C8.25 13.5815 8.1183 13.8995 7.88388 14.1339C7.64946 14.3683 7.33152 14.5 7 14.5H4.5C4.16848 14.5 3.85054 14.3683 3.61612 14.1339C3.3817 13.8995 3.25 13.5815 3.25 13.25V10.75ZM9.5 10.75C9.5 10.4185 9.6317 10.1005 9.86612 9.86612C10.1005 9.6317 10.4185 9.5 10.75 9.5H13.25C13.5815 9.5 13.8995 9.6317 14.1339 9.86612C14.3683 10.1005 14.5 10.4185 14.5 10.75V13.25C14.5 13.5815 14.3683 13.8995 14.1339 14.1339C13.8995 14.3683 13.5815 14.5 13.25 14.5H10.75C10.4185 14.5 10.1005 14.3683 9.86612 14.1339C9.6317 13.8995 9.5 13.5815 9.5 13.25V10.75ZM15.75 10.75C15.75 10.4185 15.8817 10.1005 16.1161 9.86612C16.3505 9.6317 16.6685 9.5 17 9.5H19.5C19.8315 9.5 20.1495 9.6317 20.3839 9.86612C20.6183 10.1005 20.75 10.4185 20.75 10.75V13.25C20.75 13.5815 20.6183 13.8995 20.3839 14.1339C20.1495 14.3683 19.8315 14.5 19.5 14.5H17C16.6685 14.5 16.3505 14.3683 16.1161 14.1339C15.8817 13.8995 15.75 13.5815 15.75 13.25V10.75ZM3.25 17C3.25 16.6685 3.3817 16.3505 3.61612 16.1161C3.85054 15.8817 4.16848 15.75 4.5 15.75H7C7.33152 15.75 7.64946 15.8817 7.88388 16.1161C8.1183 16.3505 8.25 16.6685 8.25 17V19.5C8.25 19.8315 8.1183 20.1495 7.88388 20.3839C7.64946 20.6183 7.33152 20.75 7 20.75H4.5C4.16848 20.75 3.85054 20.6183 3.61612 20.3839C3.3817 20.1495 3.25 19.8315 3.25 19.5V17ZM9.5 17C9.5 16.6685 9.6317 16.3505 9.86612 16.1161C10.1005 15.8817 10.4185 15.75 10.75 15.75H13.25C13.5815 15.75 13.8995 15.8817 14.1339 16.1161C14.3683 16.3505 14.5 16.6685 14.5 17V19.5C14.5 19.8315 14.3683 20.1495 14.1339 20.3839C13.8995 20.6183 13.5815 20.75 13.25 20.75H10.75C10.4185 20.75 10.1005 20.6183 9.86612 20.3839C9.6317 20.1495 9.5 19.8315 9.5 19.5V17ZM15.75 17C15.75 16.6685 15.8817 16.3505 16.1161 16.1161C16.3505 15.8817 16.6685 15.75 17 15.75H19.5C19.8315 15.75 20.1495 15.8817 20.3839 16.1161C20.6183 16.3505 20.75 16.6685 20.75 17V19.5C20.75 19.8315 20.6183 20.1495 20.3839 20.3839C20.1495 20.6183 19.8315 20.75 19.5 20.75H17C16.6685 20.75 16.3505 20.6183 16.1161 20.3839C15.8817 20.1495 15.75 19.8315 15.75 19.5V17Z" fill="white"/>
</svg>
