<svg width="328" height="94" viewBox="0 0 328 94" fill="none" xmlns="http://www.w3.org/2000/svg">
<path d="M2.84872 2.81818H1.00426V13H2.84872V2.81818ZM6.56623 8.52557C6.56623 7.42188 7.23242 6.78551 8.182 6.78551C9.11168 6.78551 9.6685 7.39702 9.6685 8.41619V13H11.4682V8.13778C11.4732 6.30824 10.4292 5.2642 8.85316 5.2642C7.70969 5.2642 6.92418 5.81108 6.57617 6.66122H6.48668V5.36364H4.76651V13H6.56623V8.52557ZM19.8453 5.36364H17.9313L16.1713 11.0362H16.0918L14.3368 5.36364H12.4178L15.1373 13H17.1259L19.8453 5.36364ZM21.0907 13H22.8904V5.36364H21.0907V13ZM21.9956 4.27983C22.5673 4.27983 23.0346 3.84233 23.0346 3.3054C23.0346 2.76349 22.5673 2.32599 21.9956 2.32599C21.4189 2.32599 20.9515 2.76349 20.9515 3.3054C20.9515 3.84233 21.4189 4.27983 21.9956 4.27983ZM28.5543 5.36364H27.0479V3.53409H25.2482V5.36364H24.1644V6.75568H25.2482V11.0014C25.2383 12.4382 26.2823 13.1442 27.6346 13.1044C28.1467 13.0895 28.4996 12.9901 28.6935 12.9254L28.3903 11.5185C28.2908 11.5433 28.087 11.5881 27.8633 11.5881C27.4109 11.5881 27.0479 11.429 27.0479 10.7031V6.75568H28.5543V5.36364ZM33.3581 13.1491C35.138 13.1491 36.361 12.2791 36.6792 10.9517L34.9988 10.7628C34.7551 11.4091 34.1586 11.7472 33.383 11.7472C32.2196 11.7472 31.449 10.9815 31.4341 9.67401H36.7537V9.12216C36.7537 6.44247 35.1429 5.2642 33.2637 5.2642C31.0762 5.2642 29.6493 6.87003 29.6493 9.22656C29.6493 11.6229 31.0563 13.1491 33.3581 13.1491ZM31.4391 8.46094C31.4938 7.48651 32.2147 6.66619 33.2885 6.66619C34.3226 6.66619 35.0186 7.42188 35.0286 8.46094H31.4391ZM41.8285 13H43.6729V8.67472H47.9038V7.12855H43.6729V4.36435H48.3512V2.81818H41.8285V13ZM49.8427 13H51.6424V8.51065C51.6424 7.54119 52.3732 6.85511 53.3626 6.85511C53.6658 6.85511 54.0437 6.9098 54.1978 6.95952V5.30398C54.0337 5.27415 53.7504 5.25426 53.5515 5.25426C52.6765 5.25426 51.9457 5.75142 51.6673 6.63636H51.5877V5.36364H49.8427V13ZM55.3935 13H57.1932V5.36364H55.3935V13ZM56.2983 4.27983C56.87 4.27983 57.3374 3.84233 57.3374 3.3054C57.3374 2.76349 56.87 2.32599 56.2983 2.32599C55.7216 2.32599 55.2543 2.76349 55.2543 3.3054C55.2543 3.84233 55.7216 4.27983 56.2983 4.27983ZM62.4245 13.1491C64.2044 13.1491 65.4274 12.2791 65.7456 10.9517L64.0652 10.7628C63.8216 11.4091 63.225 11.7472 62.4494 11.7472C61.286 11.7472 60.5154 10.9815 60.5005 9.67401H65.8201V9.12216C65.8201 6.44247 64.2093 5.2642 62.3301 5.2642C60.1426 5.2642 58.7157 6.87003 58.7157 9.22656C58.7157 11.6229 60.1227 13.1491 62.4245 13.1491ZM60.5055 8.46094C60.5602 7.48651 61.2811 6.66619 62.3549 6.66619C63.389 6.66619 64.085 7.42188 64.095 8.46094H60.5055ZM69.1424 8.52557C69.1424 7.42188 69.8086 6.78551 70.7582 6.78551C71.6879 6.78551 72.2447 7.39702 72.2447 8.41619V13H74.0444V8.13778C74.0494 6.30824 73.0053 5.2642 71.4293 5.2642C70.2859 5.2642 69.5004 5.81108 69.1523 6.66122H69.0629V5.36364H67.3427V13H69.1424V8.52557ZM78.7077 13.1342C80.0202 13.1342 80.6119 12.3537 80.8952 11.7969H81.0046V13H82.7745V2.81818H80.9698V6.62642H80.8952C80.6218 6.07457 80.06 5.2642 78.7127 5.2642C76.9478 5.2642 75.5607 6.64631 75.5607 9.19176C75.5607 11.7074 76.908 13.1342 78.7077 13.1342ZM79.2099 11.6577C78.0217 11.6577 77.3952 10.6136 77.3952 9.18182C77.3952 7.75994 78.0117 6.74077 79.2099 6.74077C80.3683 6.74077 81.0046 7.70028 81.0046 9.18182C81.0046 10.6634 80.3583 11.6577 79.2099 11.6577ZM90.7278 7.3821C90.4792 6.08949 89.4451 5.2642 87.6554 5.2642C85.8159 5.2642 84.563 6.16903 84.568 7.58097C84.563 8.6946 85.2491 9.4304 86.7157 9.73366L88.0183 10.0071C88.7193 10.1612 89.0474 10.4446 89.0474 10.8771C89.0474 11.3991 88.4806 11.7919 87.6255 11.7919C86.8002 11.7919 86.2633 11.4339 86.1092 10.7479L84.3542 10.9169C84.5779 12.3189 85.7562 13.1491 87.6305 13.1491C89.5396 13.1491 90.8869 12.1598 90.8919 10.7131C90.8869 9.62429 90.1859 8.9581 88.7441 8.64489L87.4416 8.36648C86.666 8.19247 86.3578 7.92401 86.3627 7.48153C86.3578 6.96449 86.9295 6.60653 87.6802 6.60653C88.5105 6.60653 88.948 7.05895 89.0872 7.56108L90.7278 7.3821ZM98.8912 13.1491C99.791 13.1491 100.79 12.8707 101.501 12.2543L102.153 13H104.101L102.61 11.255C103.107 10.5888 103.495 9.59943 103.495 8.20241H101.949C101.949 8.87358 101.79 9.47514 101.521 9.97727L99.6618 7.79972L100.303 7.32741C101.153 6.71094 101.655 5.97017 101.655 5.00568C101.655 3.76278 100.676 2.69389 99.0701 2.69389C97.4593 2.69389 96.4004 3.76278 96.4004 5.20952C96.4004 6.11932 96.8578 6.86009 97.4444 7.58594C96.3109 8.36648 95.5353 9.0973 95.5353 10.2955C95.5353 11.9162 96.8081 13.1491 98.8912 13.1491ZM100.522 11.1307C100.04 11.4787 99.4877 11.6676 98.9458 11.6676C97.9466 11.6676 97.3002 11.0213 97.3002 10.2159C97.3002 9.86293 97.5687 9.33097 98.2449 8.83381L98.4089 8.71449L100.522 11.1307ZM98.742 6.70099C98.3145 6.17401 98.0062 5.7017 98.0062 5.23438C98.0062 4.68253 98.4437 4.17045 99.095 4.17045C99.7363 4.17045 100.129 4.64773 100.129 5.08523C100.129 5.60227 99.8507 5.9652 99.3187 6.30824L98.742 6.70099ZM108.684 13H115.346V11.4538H110.528V8.67472H114.963V7.12855H110.528V4.36435H115.306V2.81818H108.684V13ZM119.306 13.1541C120.504 13.1541 121.22 12.5923 121.548 11.951H121.608V13H123.338V7.8892C123.338 5.87074 121.692 5.2642 120.235 5.2642C118.63 5.2642 117.397 5.98011 116.999 7.37216L118.679 7.6108C118.858 7.08878 119.365 6.64134 120.245 6.64134C121.081 6.64134 121.538 7.06889 121.538 7.8196V7.84943C121.538 8.36648 120.996 8.39134 119.649 8.53551C118.167 8.6946 116.75 9.13707 116.75 10.8572C116.75 12.3587 117.849 13.1541 119.306 13.1541ZM119.773 11.8317C119.022 11.8317 118.485 11.4886 118.485 10.8274C118.485 10.1364 119.087 9.84801 119.892 9.73366C120.365 9.66903 121.309 9.54972 121.543 9.3608V10.2607C121.543 11.1108 120.857 11.8317 119.773 11.8317ZM125.147 13H126.947V8.51065C126.947 7.54119 127.678 6.85511 128.667 6.85511C128.971 6.85511 129.348 6.9098 129.502 6.95952V5.30398C129.338 5.27415 129.055 5.25426 128.856 5.25426C127.981 5.25426 127.25 5.75142 126.972 6.63636H126.892V5.36364H125.147V13ZM132.498 8.52557C132.498 7.42188 133.164 6.78551 134.114 6.78551C135.043 6.78551 135.6 7.39702 135.6 8.41619V13H137.4V8.13778C137.405 6.30824 136.361 5.2642 134.785 5.2642C133.641 5.2642 132.856 5.81108 132.508 6.66122H132.418V5.36364H130.698V13H132.498V8.52557Z" fill="#171520"/>
<path d="M8.00923 27.0348H9.58523C9.24219 25.0511 7.54688 23.679 5.34943 23.679C2.71449 23.679 0.790483 25.6626 0.790483 28.9141C0.790483 32.1357 2.6598 34.1392 5.41903 34.1392C7.88992 34.1392 9.65483 32.5185 9.65483 29.9482V28.7898H5.6527V30.0575H8.16832C8.13352 31.6982 7.04972 32.7372 5.41903 32.7372C3.62429 32.7372 2.31676 31.38 2.31676 28.9041C2.31676 26.4382 3.63423 25.081 5.35938 25.081C6.71165 25.081 7.62642 25.8267 8.00923 27.0348ZM14.7768 34.1541C16.4423 34.1541 17.6206 33.3338 17.9586 32.0909L16.5517 31.8374C16.2832 32.5582 15.6369 32.9261 14.7917 32.9261C13.519 32.9261 12.6639 32.1009 12.6241 30.6293H18.0531V30.1023C18.0531 27.343 16.4025 26.2642 14.6724 26.2642C12.5446 26.2642 11.1426 27.8849 11.1426 30.2315C11.1426 32.603 12.5247 34.1541 14.7768 34.1541ZM12.6291 29.5156C12.6887 28.4318 13.4743 27.4922 14.6824 27.4922C15.8358 27.4922 16.5914 28.3473 16.5964 29.5156H12.6291ZM23.267 26.3636H21.701V24.5341H20.2145V26.3636H19.0959V27.5568H20.2145V32.0661C20.2095 33.4531 21.2685 34.1243 22.4418 34.0994C22.9141 34.0945 23.2322 34.005 23.4062 33.9403L23.1378 32.7124C23.0384 32.7322 22.8544 32.777 22.6158 32.777C22.1335 32.777 21.701 32.6179 21.701 31.7578V27.5568H23.267V26.3636ZM33.4538 30.8331C33.4588 32.1307 32.4943 32.7472 31.6591 32.7472C30.7393 32.7472 30.103 32.081 30.103 31.0419V26.3636H28.6165V31.2209C28.6165 33.1151 29.6555 34.0994 31.1222 34.0994C32.2706 34.0994 33.0511 33.4929 33.4041 32.6776H33.4837V34H34.9453V26.3636H33.4538V30.8331ZM36.9426 36.8636H38.4292V32.8118H38.5186C38.7871 33.299 39.334 34.1491 40.726 34.1491C42.5755 34.1491 43.9178 32.6676 43.9178 30.1967C43.9178 27.7209 42.5556 26.2642 40.7111 26.2642C39.2942 26.2642 38.7821 27.1293 38.5186 27.6016H38.3944V26.3636H36.9426V36.8636ZM38.3993 30.1818C38.3993 28.5859 39.0953 27.527 40.3929 27.527C41.7402 27.527 42.4164 28.6655 42.4164 30.1818C42.4164 31.7131 41.7203 32.8814 40.3929 32.8814C39.1152 32.8814 38.3993 31.7876 38.3993 30.1818ZM49.1479 26.3636H47.5819V24.5341H46.0953V26.3636H44.9767V27.5568H46.0953V32.0661C46.0904 33.4531 47.1493 34.1243 48.3226 34.0994C48.7949 34.0945 49.1131 34.005 49.2871 33.9403L49.0186 32.7124C48.9192 32.7322 48.7353 32.777 48.4966 32.777C48.0144 32.777 47.5819 32.6179 47.5819 31.7578V27.5568H49.1479V26.3636ZM50.7923 36.8636H52.2788V32.8118H52.3683C52.6367 33.299 53.1836 34.1491 54.5756 34.1491C56.4251 34.1491 57.7674 32.6676 57.7674 30.1967C57.7674 27.7209 56.4052 26.2642 54.5607 26.2642C53.1438 26.2642 52.6317 27.1293 52.3683 27.6016H52.244V26.3636H50.7923V36.8636ZM52.2489 30.1818C52.2489 28.5859 52.945 27.527 54.2425 27.527C55.5898 27.527 56.266 28.6655 56.266 30.1818C56.266 31.7131 55.57 32.8814 54.2425 32.8814C52.9648 32.8814 52.2489 31.7876 52.2489 30.1818ZM66.981 23.8182H65.4846L62.9441 25.4787V26.9503L65.3801 25.3594H65.4398V34H66.981V23.8182ZM73.28 34.169C75.6316 34.169 77.0087 32.25 77.0087 28.9141C77.0087 25.603 75.6117 23.679 73.28 23.679C70.9434 23.679 69.5513 25.598 69.5463 28.9141C69.5463 32.245 70.9235 34.1641 73.28 34.169ZM73.28 32.8416C71.9029 32.8416 71.0726 31.4595 71.0726 28.9141C71.0776 26.3786 71.9078 24.9815 73.28 24.9815C74.6472 24.9815 75.4824 26.3786 75.4824 28.9141C75.4824 31.4595 74.6522 32.8416 73.28 32.8416ZM82.3171 34.169C84.6687 34.169 86.0458 32.25 86.0458 28.9141C86.0458 25.603 84.6488 23.679 82.3171 23.679C79.9805 23.679 78.5884 25.598 78.5835 28.9141C78.5835 32.245 79.9606 34.1641 82.3171 34.169ZM82.3171 32.8416C80.94 32.8416 80.1097 31.4595 80.1097 28.9141C80.1147 26.3786 80.945 24.9815 82.3171 24.9815C83.6843 24.9815 84.5195 26.3786 84.5195 28.9141C84.5195 31.4595 83.6893 32.8416 82.3171 32.8416ZM91.5344 34H93.021V29.3366C93.021 28.3374 93.7915 27.6165 94.8455 27.6165C95.1538 27.6165 95.5018 27.6712 95.6211 27.706V26.2841C95.4719 26.2642 95.1786 26.2493 94.9897 26.2493C94.0948 26.2493 93.3292 26.7564 93.0508 27.5767H92.9712V26.3636H91.5344V34ZM99.9252 34.1541C101.591 34.1541 102.769 33.3338 103.107 32.0909L101.7 31.8374C101.432 32.5582 100.785 32.9261 99.9402 32.9261C98.6674 32.9261 97.8123 32.1009 97.7725 30.6293H103.202V30.1023C103.202 27.343 101.551 26.2642 99.8208 26.2642C97.693 26.2642 96.291 27.8849 96.291 30.2315C96.291 32.603 97.6731 34.1541 99.9252 34.1541ZM97.7775 29.5156C97.8372 28.4318 98.6227 27.4922 99.8308 27.4922C100.984 27.4922 101.74 28.3473 101.745 29.5156H97.7775ZM106.493 34H108.004L109.555 28.4865H109.67L111.221 34H112.737L114.979 26.3636H113.443L111.956 31.9467H111.882L110.39 26.3636H108.854L107.353 31.9716H107.278L105.782 26.3636H104.246L106.493 34ZM118.612 34.169C119.875 34.169 120.586 33.5277 120.869 32.956H120.929V34H122.381V28.929C122.381 26.7067 120.631 26.2642 119.418 26.2642C118.036 26.2642 116.763 26.821 116.266 28.2131L117.663 28.5312C117.881 27.9893 118.438 27.4673 119.438 27.4673C120.397 27.4673 120.889 27.9695 120.889 28.8345V28.8693C120.889 29.4112 120.332 29.4013 118.96 29.5604C117.513 29.7294 116.032 30.1072 116.032 31.8423C116.032 33.3438 117.161 34.169 118.612 34.169ZM118.935 32.9759C118.095 32.9759 117.489 32.598 117.489 31.8622C117.489 31.0668 118.195 30.7834 119.055 30.669C119.537 30.6044 120.68 30.4751 120.894 30.2614V31.2457C120.894 32.1506 120.173 32.9759 118.935 32.9759ZM124.361 34H125.847V29.3366C125.847 28.3374 126.618 27.6165 127.672 27.6165C127.98 27.6165 128.328 27.6712 128.447 27.706V26.2841C128.298 26.2642 128.005 26.2493 127.816 26.2493C126.921 26.2493 126.155 26.7564 125.877 27.5767H125.797V26.3636H124.361V34ZM132.319 34.1491C133.711 34.1491 134.258 33.299 134.526 32.8118H134.651V34H136.102V23.8182H134.616V27.6016H134.526C134.258 27.1293 133.751 26.2642 132.329 26.2642C130.484 26.2642 129.127 27.7209 129.127 30.1967C129.127 32.6676 130.464 34.1491 132.319 34.1491ZM132.647 32.8814C131.32 32.8814 130.629 31.7131 130.629 30.1818C130.629 28.6655 131.305 27.527 132.647 27.527C133.945 27.527 134.641 28.5859 134.641 30.1818C134.641 31.7876 133.93 32.8814 132.647 32.8814ZM141.929 36.8636H143.415V32.8118H143.505C143.773 33.299 144.32 34.1491 145.712 34.1491C147.562 34.1491 148.904 32.6676 148.904 30.1967C148.904 27.7209 147.542 26.2642 145.697 26.2642C144.281 26.2642 143.768 27.1293 143.505 27.6016H143.381V26.3636H141.929V36.8636ZM143.386 30.1818C143.386 28.5859 144.082 27.527 145.379 27.527C146.727 27.527 147.403 28.6655 147.403 30.1818C147.403 31.7131 146.707 32.8814 145.379 32.8814C144.102 32.8814 143.386 31.7876 143.386 30.1818ZM153.786 34.1541C155.939 34.1541 157.346 32.5781 157.346 30.2166C157.346 27.8402 155.939 26.2642 153.786 26.2642C151.634 26.2642 150.227 27.8402 150.227 30.2166C150.227 32.5781 151.634 34.1541 153.786 34.1541ZM153.791 32.9062C152.384 32.9062 151.728 31.6783 151.728 30.2116C151.728 28.75 152.384 27.5071 153.791 27.5071C155.188 27.5071 155.844 28.75 155.844 30.2116C155.844 31.6783 155.188 32.9062 153.791 32.9062ZM159.005 34H160.492V26.3636H159.005V34ZM159.756 25.1854C160.268 25.1854 160.695 24.7876 160.695 24.3004C160.695 23.8132 160.268 23.4105 159.756 23.4105C159.239 23.4105 158.816 23.8132 158.816 24.3004C158.816 24.7876 159.239 25.1854 159.756 25.1854ZM163.978 29.4659C163.978 28.2479 164.724 27.5518 165.758 27.5518C166.767 27.5518 167.379 28.2131 167.379 29.3217V34H168.865V29.1428C168.865 27.2536 167.826 26.2642 166.265 26.2642C165.116 26.2642 164.366 26.7962 164.013 27.6065H163.918V26.3636H162.491V34H163.978V29.4659ZM174.423 26.3636H172.857V24.5341H171.371V26.3636H170.252V27.5568H171.371V32.0661C171.366 33.4531 172.425 34.1243 173.598 34.0994C174.07 34.0945 174.388 34.005 174.562 33.9403L174.294 32.7124C174.195 32.7322 174.011 32.777 173.772 32.777C173.29 32.777 172.857 32.6179 172.857 31.7578V27.5568H174.423V26.3636ZM181.667 28.228C181.359 27.0398 180.429 26.2642 178.778 26.2642C177.053 26.2642 175.83 27.174 175.83 28.5263C175.83 29.6101 176.487 30.331 177.918 30.6491L179.211 30.9325C179.947 31.0966 180.29 31.4247 180.29 31.902C180.29 32.4936 179.658 32.956 178.684 32.956C177.794 32.956 177.222 32.5732 177.043 31.8224L175.607 32.0412C175.855 33.3935 176.979 34.1541 178.694 34.1541C180.538 34.1541 181.816 33.1747 181.816 31.7926C181.816 30.7138 181.13 30.0476 179.728 29.7244L178.515 29.446C177.675 29.2472 177.312 28.9638 177.317 28.4467C177.312 27.8601 177.948 27.4425 178.793 27.4425C179.718 27.4425 180.146 27.9545 180.32 28.4666L181.667 28.228ZM190.79 26.3636H189.144V25.6776C189.144 25.0014 189.423 24.6335 190.148 24.6335C190.457 24.6335 190.675 24.7031 190.815 24.7479L191.163 23.5447C190.954 23.4652 190.521 23.3409 189.92 23.3409C188.712 23.3409 187.653 24.0469 187.653 25.4787V26.3636H186.474V27.5568H187.653V34H189.144V27.5568H190.79V26.3636ZM195.239 34.1541C197.392 34.1541 198.799 32.5781 198.799 30.2166C198.799 27.8402 197.392 26.2642 195.239 26.2642C193.087 26.2642 191.68 27.8402 191.68 30.2166C191.68 32.5781 193.087 34.1541 195.239 34.1541ZM195.244 32.9062C193.837 32.9062 193.181 31.6783 193.181 30.2116C193.181 28.75 193.837 27.5071 195.244 27.5071C196.641 27.5071 197.298 28.75 197.298 30.2116C197.298 31.6783 196.641 32.9062 195.244 32.9062ZM200.458 34H201.945V29.3366C201.945 28.3374 202.715 27.6165 203.769 27.6165C204.078 27.6165 204.426 27.6712 204.545 27.706V26.2841C204.396 26.2642 204.102 26.2493 203.914 26.2493C203.019 26.2493 202.253 26.7564 201.975 27.5767H201.895V26.3636H200.458V34ZM4.29048 52.1541C5.95597 52.1541 7.13423 51.3338 7.4723 50.0909L6.06534 49.8374C5.79688 50.5582 5.15057 50.9261 4.3054 50.9261C3.03267 50.9261 2.17756 50.1009 2.13778 48.6293H7.56676V48.1023C7.56676 45.343 5.91619 44.2642 4.18608 44.2642C2.05824 44.2642 0.65625 45.8849 0.65625 48.2315C0.65625 50.603 2.03835 52.1541 4.29048 52.1541ZM2.14276 47.5156C2.20241 46.4318 2.98793 45.4922 4.19602 45.4922C5.34943 45.4922 6.10511 46.3473 6.11009 47.5156H2.14276ZM15.5163 44.3636H13.9205L11.9915 50.2401H11.9119L9.97798 44.3636H8.3821L11.1562 52H12.7472L15.5163 44.3636ZM19.9311 52.1541C21.5966 52.1541 22.7749 51.3338 23.1129 50.0909L21.706 49.8374C21.4375 50.5582 20.7912 50.9261 19.946 50.9261C18.6733 50.9261 17.8182 50.1009 17.7784 48.6293H23.2074V48.1023C23.2074 45.343 21.5568 44.2642 19.8267 44.2642C17.6989 44.2642 16.2969 45.8849 16.2969 48.2315C16.2969 50.603 17.679 52.1541 19.9311 52.1541ZM17.7834 47.5156C17.843 46.4318 18.6286 45.4922 19.8366 45.4922C20.9901 45.4922 21.7457 46.3473 21.7507 47.5156H17.7834ZM24.8567 52H26.3432V47.3366C26.3432 46.3374 27.1138 45.6165 28.1678 45.6165C28.476 45.6165 28.824 45.6712 28.9434 45.706V44.2841C28.7942 44.2642 28.5009 44.2493 28.312 44.2493C27.4171 44.2493 26.6515 44.7564 26.373 45.5767H26.2935V44.3636H24.8567V52ZM31.4018 54.8636C32.6298 54.8636 33.4054 54.2223 33.8478 53.0192L37.0048 44.3786L35.399 44.3636L33.465 50.2898H33.3855L31.4515 44.3636H29.8606L32.6547 52.0994L32.4707 52.6065C32.0929 53.6207 31.5609 53.7053 30.7456 53.4815L30.3876 54.6996C30.5666 54.7791 30.9544 54.8636 31.4018 54.8636ZM45.7449 44.3636H44.0993V43.6776C44.0993 43.0014 44.3777 42.6335 45.1035 42.6335C45.4118 42.6335 45.6305 42.7031 45.7697 42.7479L46.1177 41.5447C45.9089 41.4652 45.4764 41.3409 44.8748 41.3409C43.6667 41.3409 42.6078 42.0469 42.6078 43.4787V44.3636H41.4295V45.5568H42.6078V52H44.0993V45.5568H45.7449V44.3636ZM47.2786 52H48.7651V47.3366C48.7651 46.3374 49.5357 45.6165 50.5897 45.6165C50.8979 45.6165 51.2459 45.6712 51.3652 45.706V44.2841C51.2161 44.2642 50.9228 44.2493 50.7338 44.2493C49.839 44.2493 49.0733 44.7564 48.7949 45.5767H48.7154V44.3636H47.2786V52ZM52.6516 52H54.1381V44.3636H52.6516V52ZM53.4023 43.1854C53.9144 43.1854 54.342 42.7876 54.342 42.3004C54.342 41.8132 53.9144 41.4105 53.4023 41.4105C52.8853 41.4105 52.4627 41.8132 52.4627 42.3004C52.4627 42.7876 52.8853 43.1854 53.4023 43.1854ZM59.4292 52.1541C61.0946 52.1541 62.2729 51.3338 62.611 50.0909L61.204 49.8374C60.9355 50.5582 60.2892 50.9261 59.4441 50.9261C58.1713 50.9261 57.3162 50.1009 57.2765 48.6293H62.7054V48.1023C62.7054 45.343 61.0549 44.2642 59.3248 44.2642C57.1969 44.2642 55.7949 45.8849 55.7949 48.2315C55.7949 50.603 57.177 52.1541 59.4292 52.1541ZM57.2814 47.5156C57.3411 46.4318 58.1266 45.4922 59.3347 45.4922C60.4881 45.4922 61.2438 46.3473 61.2488 47.5156H57.2814ZM65.8413 47.4659C65.8413 46.2479 66.587 45.5518 67.6211 45.5518C68.6303 45.5518 69.2418 46.2131 69.2418 47.3217V52H70.7283V47.1428C70.7283 45.2536 69.6893 44.2642 68.1282 44.2642C66.9798 44.2642 66.229 44.7962 65.8761 45.6065H65.7816V44.3636H64.3548V52H65.8413V47.4659ZM75.5806 52.1491C76.9727 52.1491 77.5195 51.299 77.788 50.8118H77.9123V52H79.364V41.8182H77.8775V45.6016H77.788C77.5195 45.1293 77.0124 44.2642 75.5906 44.2642C73.7461 44.2642 72.3888 45.7209 72.3888 48.1967C72.3888 50.6676 73.7262 52.1491 75.5806 52.1491ZM75.9087 50.8814C74.5813 50.8814 73.8903 49.7131 73.8903 48.1818C73.8903 46.6655 74.5664 45.527 75.9087 45.527C77.2063 45.527 77.9023 46.5859 77.9023 48.1818C77.9023 49.7876 77.1914 50.8814 75.9087 50.8814ZM86.1303 54.8636C87.3583 54.8636 88.1339 54.2223 88.5763 53.0192L91.7333 44.3786L90.1275 44.3636L88.1935 50.2898H88.114L86.18 44.3636H84.5891L87.3832 52.0994L87.1992 52.6065C86.8214 53.6207 86.2894 53.7053 85.4741 53.4815L85.1161 54.6996C85.2951 54.7791 85.6829 54.8636 86.1303 54.8636ZM96.0772 52.1541C98.2299 52.1541 99.6369 50.5781 99.6369 48.2166C99.6369 45.8402 98.2299 44.2642 96.0772 44.2642C93.9245 44.2642 92.5176 45.8402 92.5176 48.2166C92.5176 50.5781 93.9245 52.1541 96.0772 52.1541ZM96.0822 50.9062C94.6752 50.9062 94.019 49.6783 94.019 48.2116C94.019 46.75 94.6752 45.5071 96.0822 45.5071C97.4792 45.5071 98.1355 46.75 98.1355 48.2116C98.1355 49.6783 97.4792 50.9062 96.0822 50.9062ZM106.134 48.8331C106.138 50.1307 105.174 50.7472 104.339 50.7472C103.419 50.7472 102.783 50.081 102.783 49.0419V44.3636H101.296V49.2209C101.296 51.1151 102.335 52.0994 103.802 52.0994C104.95 52.0994 105.731 51.4929 106.084 50.6776H106.163V52H107.625V44.3636H106.134V48.8331ZM113.327 52H114.814V44.3636H113.327V52ZM114.078 43.1854C114.59 43.1854 115.018 42.7876 115.018 42.3004C115.018 41.8132 114.59 41.4105 114.078 41.4105C113.561 41.4105 113.138 41.8132 113.138 42.3004C113.138 42.7876 113.561 43.1854 114.078 43.1854ZM118.3 47.4659C118.3 46.2479 119.046 45.5518 120.08 45.5518C121.089 45.5518 121.701 46.2131 121.701 47.3217V52H123.187V47.1428C123.187 45.2536 122.148 44.2642 120.587 44.2642C119.439 44.2642 118.688 44.7962 118.335 45.6065H118.241V44.3636H116.814V52H118.3V47.4659ZM131.44 44.3636H129.844L127.915 50.2401H127.836L125.902 44.3636H124.306L127.08 52H128.671L131.44 44.3636ZM132.837 52H134.324V44.3636H132.837V52ZM133.588 43.1854C134.1 43.1854 134.528 42.7876 134.528 42.3004C134.528 41.8132 134.1 41.4105 133.588 41.4105C133.071 41.4105 132.648 41.8132 132.648 42.3004C132.648 42.7876 133.071 43.1854 133.588 43.1854ZM139.888 44.3636H138.322V42.5341H136.836V44.3636H135.717V45.5568H136.836V50.0661C136.831 51.4531 137.89 52.1243 139.063 52.0994C139.535 52.0945 139.853 52.005 140.027 51.9403L139.759 50.7124C139.659 50.7322 139.475 50.777 139.237 50.777C138.755 50.777 138.322 50.6179 138.322 49.7578V45.5568H139.888V44.3636ZM144.742 52.1541C146.407 52.1541 147.585 51.3338 147.923 50.0909L146.517 49.8374C146.248 50.5582 145.602 50.9261 144.757 50.9261C143.484 50.9261 142.629 50.1009 142.589 48.6293H148.018V48.1023C148.018 45.343 146.367 44.2642 144.637 44.2642C142.509 44.2642 141.107 45.8849 141.107 48.2315C141.107 50.603 142.49 52.1541 144.742 52.1541ZM142.594 47.5156C142.654 46.4318 143.439 45.4922 144.647 45.4922C145.801 45.4922 146.556 46.3473 146.561 47.5156H142.594Z" fill="#626262"/>
<path d="M83.5 79.5H97.5M97.5 79.5L93 75M97.5 79.5L93 84" stroke="#1B4B66" stroke-width="2" stroke-linecap="round" stroke-linejoin="round"/>
<path d="M2.34872 73.8182V84H0.504261V73.8182H2.34872ZM6.06623 79.5256V84H4.26651V76.3636H5.98668V77.6612H6.07617C6.25183 77.2337 6.5319 76.8939 6.91637 76.642C7.30415 76.3902 7.78308 76.2642 8.35316 76.2642C8.88015 76.2642 9.33919 76.3769 9.73029 76.6023C10.1247 76.8277 10.4296 77.1541 10.6451 77.5817C10.8638 78.0092 10.9715 78.5279 10.9682 79.1378V84H9.1685V79.4162C9.1685 78.9058 9.03593 78.5064 8.77077 78.218C8.50894 77.9297 8.14601 77.7855 7.682 77.7855C7.36713 77.7855 7.08706 77.8551 6.8418 77.9943C6.59985 78.1302 6.40927 78.3274 6.27006 78.5859C6.13417 78.8445 6.06623 79.1577 6.06623 79.5256ZM19.3453 76.3636L16.6259 84H14.6373L11.9178 76.3636H13.8368L15.5918 82.0362H15.6713L17.4313 76.3636H19.3453ZM20.5907 84V76.3636H22.3904V84H20.5907ZM21.4956 75.2798C21.2105 75.2798 20.9653 75.1854 20.7598 74.9964C20.5543 74.8042 20.4515 74.5739 20.4515 74.3054C20.4515 74.0336 20.5543 73.8033 20.7598 73.6143C20.9653 73.4221 21.2105 73.326 21.4956 73.326C21.7839 73.326 22.0292 73.4221 22.2314 73.6143C22.4368 73.8033 22.5396 74.0336 22.5396 74.3054C22.5396 74.5739 22.4368 74.8042 22.2314 74.9964C22.0292 75.1854 21.7839 75.2798 21.4956 75.2798ZM28.0543 76.3636V77.7557H23.6644V76.3636H28.0543ZM24.7482 74.5341H26.5479V81.7031C26.5479 81.9451 26.5844 82.1307 26.6573 82.2599C26.7335 82.3859 26.833 82.4721 26.9556 82.5185C27.0782 82.5649 27.2141 82.5881 27.3633 82.5881C27.476 82.5881 27.5787 82.5798 27.6715 82.5632C27.7676 82.5466 27.8406 82.5317 27.8903 82.5185L28.1935 83.9254C28.0974 83.9586 27.9599 83.995 27.7809 84.0348C27.6052 84.0746 27.3898 84.0978 27.1346 84.1044C26.6838 84.1177 26.2778 84.0497 25.9165 83.9006C25.5553 83.7481 25.2686 83.5128 25.0565 83.1946C24.8477 82.8764 24.7449 82.4787 24.7482 82.0014V74.5341ZM32.8581 84.1491C32.0925 84.1491 31.4313 83.9901 30.8745 83.6719C30.321 83.3504 29.8951 82.8963 29.5968 82.3097C29.2985 81.7197 29.1493 81.0253 29.1493 80.2266C29.1493 79.4411 29.2985 78.7517 29.5968 78.1584C29.8984 77.5618 30.3193 77.0978 30.8596 76.7663C31.3998 76.4316 32.0345 76.2642 32.7637 76.2642C33.2343 76.2642 33.6784 76.3404 34.0961 76.4929C34.517 76.642 34.8882 76.8741 35.2097 77.1889C35.5345 77.5038 35.7897 77.9048 35.9753 78.392C36.1609 78.8759 36.2537 79.4527 36.2537 80.1222V80.674H29.9945V79.4609H34.5286C34.5253 79.1162 34.4507 78.8097 34.3049 78.5412C34.159 78.2694 33.9552 78.0556 33.6934 77.8999C33.4348 77.7441 33.1332 77.6662 32.7885 77.6662C32.4206 77.6662 32.0975 77.7557 31.8191 77.9347C31.5407 78.1103 31.3236 78.3423 31.1678 78.6307C31.0153 78.9157 30.9374 79.2289 30.9341 79.5703V80.6293C30.9341 81.0734 31.0153 81.4545 31.1777 81.7727C31.3401 82.0876 31.5672 82.3295 31.8588 82.4986C32.1505 82.6643 32.4919 82.7472 32.883 82.7472C33.1448 82.7472 33.3818 82.7107 33.5939 82.6378C33.806 82.5616 33.99 82.4505 34.1458 82.3047C34.3016 82.1589 34.4192 81.9782 34.4988 81.7628L36.1792 81.9517C36.0731 82.3958 35.8709 82.7836 35.5726 83.1151C35.2776 83.4432 34.8998 83.6984 34.4391 83.8807C33.9784 84.0597 33.4514 84.1491 32.8581 84.1491ZM49.6957 73.8182V84H48.055L43.2575 77.0646H43.1729V84H41.3285V73.8182H42.979L47.7717 80.7585H47.8612V73.8182H49.6957ZM54.9569 84.1491C54.2111 84.1491 53.5648 83.9851 53.0179 83.657C52.4711 83.3288 52.0468 82.8698 51.7452 82.2798C51.4469 81.6899 51.2978 81.0005 51.2978 80.2116C51.2978 79.4228 51.4469 78.7318 51.7452 78.1385C52.0468 77.5452 52.4711 77.0845 53.0179 76.7564C53.5648 76.4283 54.2111 76.2642 54.9569 76.2642C55.7026 76.2642 56.3489 76.4283 56.8958 76.7564C57.4426 77.0845 57.8652 77.5452 58.1635 78.1385C58.4651 78.7318 58.6159 79.4228 58.6159 80.2116C58.6159 81.0005 58.4651 81.6899 58.1635 82.2798C57.8652 82.8698 57.4426 83.3288 56.8958 83.657C56.3489 83.9851 55.7026 84.1491 54.9569 84.1491ZM54.9668 82.7074C55.3712 82.7074 55.7092 82.5964 55.981 82.3743C56.2528 82.1489 56.455 81.8473 56.5875 81.4695C56.7234 81.0916 56.7914 80.6707 56.7914 80.2067C56.7914 79.7393 56.7234 79.3168 56.5875 78.9389C56.455 78.5578 56.2528 78.2545 55.981 78.0291C55.7092 77.8037 55.3712 77.6911 54.9668 77.6911C54.5525 77.6911 54.2078 77.8037 53.9327 78.0291C53.6609 78.2545 53.4571 78.5578 53.3212 78.9389C53.1886 79.3168 53.1223 79.7393 53.1223 80.2067C53.1223 80.6707 53.1886 81.0916 53.3212 81.4695C53.4571 81.8473 53.6609 82.1489 53.9327 82.3743C54.2078 82.5964 54.5525 82.7074 54.9668 82.7074ZM61.5007 84L59.343 76.3636H61.1776L62.5199 81.733H62.5895L63.9616 76.3636H65.7763L67.1484 81.7031H67.223L68.5455 76.3636H70.3849L68.2223 84H66.348L64.9162 78.8395H64.8118L63.38 84H61.5007Z" fill="#1B4B66"/>
<rect x="234" width="94" height="94" rx="8" fill="#FFE6CA"/>
</svg>
